<svg version="1.0" xmlns="http://www.w3.org/2000/svg" width="1080" height="1081"><path d="M0 1079.25v-1.75h1080v3.5H0v-1.75zM485.5 943c-11.4-.65-35.85-4.45-42.35-6.55L440 935.4v-3.9h4.65c2.5 0 6.4.3 8.6.7 2.2.4 8.95 1 15 1.3 9 .45 13.35.4 24-.2 13.75-.85 26.25-2.15 35.75-3.75 3.15-.55 7.1-1.1 8.75-1.3 6.1-.7 32.05-6.9 41.65-10 18.95-6.05 24.8-7.95 28.35-9.3 7.4-2.8 9.5-3.55 12-4.45 6.7-2.35 17.35-7.7 23.9-12.05 1.6-1.1 3.05-1.95 3.2-1.95.15 0 2.1-1.2 4.35-2.7 2.2-1.45 6.1-4 8.55-5.65 8.75-5.8 16-10.75 20.45-14.1 2.5-1.85 5.1-3.7 5.8-4.2.7-.45 2.5-1.7 4-2.85 1.5-1.1 3.4-2.45 4.15-2.95l1.4-.95-5.15-.2c-6.65-.25-9-1.25-11.8-4.95-3.85-5.25-5.45-12.95-4.9-24.1.4-7.25 2-17.35 3.85-24.25 3.15-11.4 9.95-21.9 16.9-25.95 2.1-1.25 2.85-1.35 8.8-1.55 8.55-.25 10.25.2 13.6 3.65 1.75 1.8 2.8 3.35 3.2 4.85.3 1.15 1 3.45 1.5 5.05.8 2.35.95 4.4.95 12.05 0 8.1-.2 10.15-1.5 17.35-1.65 8.9-4 16.45-6.55 21.15l-1.65 3 2.2-1.75c1.2-.95 2.55-2.05 3.05-2.45.45-.4 2.35-2 4.25-3.5 1.85-1.5 5.6-4.75 8.35-7.25 2.7-2.45 5.55-4.95 6.3-5.5.75-.55 2.7-2.25 4.35-3.8 1.6-1.55 4.1-3.8 5.45-5 7.05-6.15 21.6-20.8 30.95-31.25 2.45-2.7 4.65-5.05 4.8-5.2.4-.25 4.3-4.85 8.25-9.7 1.4-1.7 3.45-4.05 4.6-5.3 1.2-1.25 2.15-2.4 2.15-2.55 0-.15.5-.85 1.15-1.55.6-.7 1.55-1.9 2.1-2.7.55-.75 1.9-2.55 3-3.95 3.3-4.1 7.25-9.7 12.85-18.2 1-1.55 2.35-3.5 3-4.4.65-.9 1.85-2.75 2.65-4.15.85-1.45 2.25-3.75 3.2-5.2 4.4-6.7 11.5-20.25 16.4-31.3.7-1.5 1.65-3.65 2.2-4.75 1.45-3.1 3.5-8.25 4.2-10.75.35-1.25 1.1-3.4 1.65-4.75.55-1.4 1.35-3.7 1.8-5.15l.75-2.7-2.35-2.5c-2.35-2.5-5.8-5.1-10.1-7.5-1.25-.7-3.3-1.9-4.65-2.65-2.85-1.6-5.5-2.65-14.35-5.5-6.15-2.05-9.35-2.8-17.5-4.25-11.5-2.05-29.65-2.85-45-2.05-9 .5-27.5 2.4-34 3.5-13.65 2.35-25.85 4.65-32 6.1-14.35 3.4-25.2 6.25-33 8.7-1.25.35-4.4 1.3-7 2.05-2.6.7-6.3 1.85-8.25 2.45-1.9.65-6.2 2-9.5 3-7.05 2.1-8.05 2.45-22.75 7.45-6.2 2.15-13.5 4.6-16.25 5.55-2.75.9-8.25 2.85-12.25 4.25-4 1.45-7.95 2.8-8.8 3-.9.2-1.85.55-2.15.75-.35.2-3.7 1.45-7.45 2.75-13.25 4.7-14.95 5.4-13.85 5.75.55.15 2 .8 3.25 1.4l2.25 1.1.05 3.4c.05 2.25.3 3.7.8 4.15.4.4 2.5 1.4 4.7 2.15 7.1 2.55 12.2 5.45 15.45 8.8 7.25 7.4 10.3 23.65 5.45 28.85-2.6 2.75-6.25 4-12.45 4.3-6.3.25-16.4-.55-18.55-1.5-4.55-1.95-9.45-6.55-11.25-10.55-.45-1.05-1.8-1.95-5.2-3.55-4.35-2.1-4.7-2.15-8.1-1.95-3.8.3-8.75-.45-13-1.9-6-2.05-13.25-8.5-14.6-12.95-.35-1.25-.85-2.75-1.1-3.35-.5-1.3 2.2-2.05-21.7 6.1-9.35 3.2-20.8 7-25.5 8.5-4.65 1.45-10.05 3.2-12 3.9-1.9.7-5.5 1.85-8 2.6-2.45.75-6.75 2.1-9.5 3-2.75.85-7.7 2.35-11 3.25-3.3.9-8 2.25-10.5 3-2.45.75-6.3 1.85-8.5 2.45-2.2.55-6.8 1.8-10.25 2.75-12.6 3.4-24.15 6.2-31.7 7.55-2.15.4-4.65.95-5.5 1.2-1.7.55-22.7 3.65-31.55 4.65-3.4.4-11.9.65-22.5.65h-17l-7.7-1.65c-8.9-1.9-10.7-2.5-14.8-4.65-1.65-.85-3.65-1.9-4.5-2.35-2.35-1.2-8.4-6.3-10-8.45-.8-1.05-1.7-2.1-2.05-2.4-.3-.25-1.15-1.6-1.95-3-1.2-2.25-1.4-3.25-1.85-9.75-.25-4-.4-10.4-.25-14.2l.2-7-1.25-1c-3.1-2.5-5.6-5.5-5.9-7.1-.15-.9-.2-6.45-.1-12.3.2-9.4.35-11.05 1.35-14.15 2.05-6.25 2.6-6.8 7.25-7.45 1.3-.15 4.25-1.15 6.5-2.15 3.95-1.8 4.25-1.85 11.55-2.15 7.95-.35 11.2-1.2 16.45-4.25 1.15-.65 3.6-1.55 5.55-2 1.9-.45 4-1.15 4.65-1.55 1.05-.7 7.25-5.55 11.3-8.85 4-3.25 8.7-5.5 15.85-7.55 3.45-1 7.1-2.15 8.1-2.55 1-.4 2.35-.75 3-.75 2.1 0 4.1-2.6 5.25-6.85.9-3.3 1.1-5.7 1.3-15.9.1-6.6.5-13.6.85-15.5.6-3.5.6-3.6-1.25-9.5-3.6-11.65-4.3-15-4.3-21.4 0-4.75-.2-6.25-.95-7.75-1.7-3.4-2.2-6.9-1.9-13.05.6-11.7 2.5-19.65 6.75-28.35 3.8-7.75 4.7-9.45 5.7-10.5 2.9-3.3 5.15-9.85 6.15-17.75.15-1.25.75-3.05 1.3-4 2.7-4.6 4-8.2 4.5-12.1.7-5.7 3.4-10.2 10.4-17.45 2.05-2.15 3.5-3.9 3.25-3.9-.45 0-9.2 2.45-16.7 4.65-7.65 2.25-14.1 4.45-24.25 8.15-15.85 5.8-14.2 5.1-32.8 13.4-9 4.05-29.45 14.45-31.45 16.05-.4.3-1.75 1.15-3 1.85-1.25.7-4.25 2.55-6.75 4.1-2.45 1.55-5.35 3.3-6.45 3.9-3.75 2.2-6.25 3.85-7.55 5.05-1.15 1.05-2.7 1.5-4.3 1.25-1.3-.15-1.8-1.95-1.25-4.15.5-1.9 9.4-12.95 14.05-17.4.55-.5 3.35-3.25 6.25-6.05 5.5-5.4 12.8-11.65 17.15-14.7 1.45-1.05 3.6-2.6 4.85-3.5 3.9-2.85 8.95-6.1 9.45-6.1.25 0 1.1-.5 1.9-1.15 2.65-2.2 15.6-9.35 23.65-13.1 4.45-2.1 8.45-4 8.9-4.25.45-.25 3.9-1.75 7.6-3.3 14.35-5.95 33.55-11.9 50.5-15.7 2.6-.6 6-1.4 7.55-1.8 1.5-.4 3.55-.7 4.5-.7.95 0 2.6-.25 3.7-.6 1.1-.3 3.35-.8 5-1.1 3.25-.6 3-.35 7.2-7.25 2.9-4.8 6.6-7.8 14-11.5 3.15-1.6 5.35-3.25 8.85-6.55 6.8-6.5 6.8-6.5 19.75-7.3 6.7-.4 14.4-1.25 20.05-2.15 5.05-.85 10.45-1.7 12.05-1.85 3.35-.4 4.1-1 4.85-3.65.4-1.5.35-2.25-.25-3.35-.9-1.75-1-7-.2-11.55.45-2.4 1-3.7 2.3-5.25 2.1-2.55 5.15-8.45 7.15-13.9 2.9-8 6.75-11.5 16.75-15.3 3.1-1.15 4.2-1.3 9.75-1.3h6.25l4.25 2c9.6 4.55 14.65 11.25 17.85 23.5 1.1 4.2 1.3 6 1.35 13.35.05 10.15-.9 16.9-3.25 22.45l-1.55 3.75 2.95 4.15c2.9 4.1 2.95 4.15 5.9 4.8 6.4 1.35 8.3 2.25 12.3 5.6 2.15 1.8 4.7 4.3 5.65 5.55.95 1.3 2.1 2.45 2.55 2.65.5.15 3 .55 5.65.8 2.7.25 6.9.8 9.35 1.25 2.5.4 5.85 1 7.5 1.25 1.65.3 5.05.85 7.5 1.25 2.5.4 5.65.95 7 1.25 1.4.3 5.9 1.2 10 2 12.2 2.4 29.2 6.6 44.5 11 19.2 5.55 51.6 16.55 69 23.45 2.75 1.1 7.6 2.95 10.75 4.2 6.7 2.6 16.8 6.7 18.25 7.35 2.35 1.05 10.65 4.5 10.95 4.5.15 0 2.2.9 4.55 2 2.35 1.1 4.45 2 4.75 2 .3 0 2.5 1 4.9 2.2 2.4 1.2 4.9 2.35 5.6 2.55.7.2 4.5 1.9 8.5 3.75s7.8 3.55 8.5 3.75c.7.2 5.3 2.35 10.25 4.75s12.4 5.9 16.5 7.7c7.55 3.4 11.6 5.35 25.75 12.25 4.3 2.1 8.65 4.2 9.75 4.65 1.1.45 2.8 1.3 3.75 1.85.95.55 5.7 2.95 10.5 5.35 4.8 2.35 9.05 4.55 9.4 4.85 1.45 1.15 3.15-2.5 5.25-11.15 1.3-5.35 1.85-12.3 1.85-23.35 0-10.55-1-24.15-2-26.95-.55-1.6-2.8-3.55-14.5-12.7-3.15-2.45-6.7-5.25-7.85-6.25-1.15-.95-2.2-1.75-2.35-1.75-.2 0-1.75-1.2-3.55-2.6-9.15-7.55-24.25-19.4-29.75-23.4-2.05-1.5-4.05-3-4.4-3.35-.35-.35-3.05-2.45-6-4.75s-5.7-4.45-6.1-4.8c-.4-.35-2-1.6-3.5-2.8-1.5-1.15-5-3.9-7.8-6.1-2.75-2.15-7.15-5.55-9.75-7.55-2.6-2-7.05-5.45-9.95-7.65-2.9-2.2-5.9-4.55-6.7-5.15-.8-.6-2.75-2.1-4.25-3.35-1.55-1.25-5.4-4.2-8.55-6.5-6.55-4.85-15.35-11.55-21.25-16.2-2.2-1.7-5.4-4.1-7.15-5.35-1.7-1.2-4.75-3.35-6.7-4.8-2-1.45-6.1-4.3-9.15-6.4-5.95-4.15-7.6-5.35-12-8.75-1.55-1.25-3.3-2.5-3.85-2.8-.55-.3-1.55-1.15-2.3-1.85-1.45-1.4-19.3-14.7-22.75-17-1.15-.75-4.5-3-7.45-5-25.5-17.25-50.15-29.4-80.15-39.55-15.85-5.4-38-10.3-53-11.8-3-.3-7.75-.8-10.5-1.15-3.3-.4-12.45-.6-26.75-.6-23.95.05-30.35.55-48.65 3.8-4.65.85-9.35 1.45-10.5 1.35-2-.15-2.1-.2-2.25-1.95-.1-1.05.1-2 .5-2.3 1-.8 11.65-5 16.4-6.45 4.4-1.35 8.4-2.3 17.5-4.15 2.9-.6 5.95-1.3 6.75-1.55 3.7-1.15 15.85-1.75 34-1.75 20.45 0 29.05.4 35.75 1.55 2.35.4 6.15 1 8.5 1.4 20.75 3.45 39.15 8.4 62 16.7 9.35 3.35 26.95 10.85 36.1 15.35 2.35 1.2 4.85 2.3 5.5 2.55.65.2 2.95 1.35 5.15 2.6s5.85 3.25 8.15 4.45c10.7 5.6 20.7 11.3 30.45 17.4 3.8 2.4 7.9 4.95 9.1 5.7 7 4.2 34.9 23.5 41 28.35 2.1 1.65 5.15 4 6.8 5.2 3.8 2.8 10.65 8.7 22 19 1.95 1.8 5.35 4.7 7.5 6.5 2.2 1.8 5.8 4.95 8.1 7 4.95 4.55 8.55 7.7 14.15 12.5 2.35 2 5.15 4.45 6.25 5.45 1.1 1.05 3.45 3.05 5.25 4.5 1.8 1.5 5.65 4.9 8.6 7.65 2.95 2.7 6.55 5.9 8.05 7.05 2.5 1.95 6 5.05 14.35 12.6 5.1 4.65 24.7 21.7 26.6 23.15.7.55.65.05-.4-3.75-.65-2.4-1.5-5.2-1.9-6.15-.35-.95-1.6-4.65-2.8-8.25-2.4-7.35-5.8-16.55-7.75-21-5.35-12.05-11-23.75-12.75-26.25-.45-.7-1-1.65-1.2-2.2-.9-2.6-13.1-21.9-16.9-26.8-.55-.7-1.95-2.5-3.05-4.05-8.9-11.95-26.35-29.05-37.2-36.45-3.45-2.4-14.95-10.55-18-12.85-3.45-2.6-3.65-2.85-3.65-4.7v-1.95h2.4c1.9 0 3.15.45 6.3 2.25 2.2 1.25 4.05 2.25 4.15 2.25.1 0 1.6.95 3.3 2.15 1.7 1.15 5.25 3.4 7.85 4.95 2.6 1.55 5.95 3.7 7.4 4.8 11.3 8.5 29 26.3 39.6 39.85 1.25 1.6 2.85 3.55 3.55 4.45 2.1 2.55 10.7 15.3 12.5 18.55.9 1.65 2.15 3.7 2.75 4.5 2.3 3.15 9.85 17.8 13.15 25.5 1.2 2.75 2.55 5.9 3.05 7 1.95 4.4 7.35 19.3 8.6 23.65 2.35 8.35 5.85 23.35 6.65 28.8.25 1.6 1.1 2.75 4.9 6.55 4.3 4.3 8.25 7.2 14.75 10.85l2.7 1.55-.2 2.45c-.35 3.65-1.15 4.15-6.05 4.15-2.25 0-5.2-.1-6.6-.25-1.95-.2-2.5-.1-2.55.5-.4 3.1-1.8 16.2-2.45 23-.4 4.55-1.2 12.75-1.75 18.25-1.2 12.25-1.35 17.2-.5 18.8.55 1 3 4.2 5.4 6.95 1.35 1.5 7.2 9.8 8.15 11.5.55.95 1.65 2.9 2.45 4.25.8 1.4 2.95 5.55 4.75 9.25 1.85 3.7 3.6 7.3 4 8 .35.7 1.15 2.6 1.75 4.25 5.55 15.3 7 22.35 7.8 37.85.45 8.8.3 9.4-2.3 9.4-1.95 0-1.95 0-2.8-2.85-1.8-6.35-4.4-14.05-5.8-17.4-.8-1.9-2-5-2.65-6.85-1.55-4.4-5.5-12.25-8.35-16.65-2.7-4.15-8.85-10.25-10.35-10.25-.7 0-1.1.4-1.35 1.4-.15.75-1.45 5.85-2.8 11.35-1.4 5.5-2.75 11-3 12.25-.65 3-5.1 19.15-6.7 24.5-2.1 6.95-3.5 11.45-5.2 16.9l-1.65 5.2 1.9 4.3c5.3 12.1 9.9 25.2 11.2 32.1.3 1.5 1 4.8 1.6 7.25 1.1 4.7 1.3 5.95 2.7 16.4 1.25 9.4.85 32.65-.7 40.85-2.8 14.95-7.75 27.8-15 38.75-5.05 7.7-8 11.05-21.4 24.65-13.85 13.9-14.05 14.1-16.1 14.1-1.95 0-2.05-.05-2.05-1.55 0-2.25.7-3.25 5.45-8.05 4.1-4.1 6-6.2 11.25-12.4 16.2-19.05 25.4-50.25 22.75-77.3-1.4-14.4-6-32.4-12.05-46.95-2.15-5.2-2.9-6.55-2.9-5.15 0 .45-.75 2.35-1.7 4.2-.95 1.9-2.5 5.15-3.4 7.2-1.65 3.7-5.45 11.05-6.4 12.5-.3.4-2.15 3.8-4.2 7.5-6.4 11.8-8.15 14.7-17.1 28.4-1.5 2.3-2.7 4.25-2.7 4.4 0 .1-1.4 2.2-3.15 4.6-1.7 2.4-3.5 4.9-3.95 5.6-2.65 3.9-8.75 12.25-12.1 16.5-1.2 1.5-3.35 4.35-4.85 6.3-7.35 9.7-14.6 18.4-23.75 28.4-2.8 3.05-5.9 6.55-7 7.8-5.3 6.2-31.65 31.8-38.95 37.85-1.65 1.35-3.3 2.85-3.7 3.35-.4.45-2.05 1.85-3.7 3.1-1.6 1.25-3.65 2.9-4.55 3.7-.85.8-2.7 2.3-4.1 3.35-1.45 1.05-4.4 3.35-6.6 5.15-2.2 1.8-4.95 4-6.15 4.9-1.2.9-3.6 2.7-5.3 4-6.5 4.95-23.4 16.6-24.05 16.6-.25 0-.85.45-1.35 1-.5.55-1.2 1-1.5 1-.35 0-.9.35-1.25.75-.35.45-2.1 1.6-3.85 2.65-1.75 1-3.95 2.3-4.85 2.85-.95.55-4 2.35-6.85 4-2.85 1.65-5.65 3.25-6.2 3.6-1.1.7-2.6 1.4-3.75 1.85-.4.15-1.65.85-2.75 1.55-1.1.7-2.8 1.65-3.75 2.1-.95.45-4.2 2-7.25 3.45-3 1.45-8.1 3.7-11.25 4.95-3.15 1.3-6.85 2.9-8.25 3.5C610.1 926 597.3 930.1 579 935c-14.25 3.8-33.75 6.75-52.75 8-7.3.5-32 .5-40.75 0zm209.15-102.6c4.4-5.45 7.45-14.5 9.9-29.3 1.8-10.95 1-18.35-2.2-20.3-.8-.45-1.15-.25-2.45 1.2-1.7 2-4.7 8.15-6.3 13-3.3 9.9-5.6 28.2-4.1 32.75.7 2.2 2.3 4.75 3 4.75.25 0 1.2-.95 2.15-2.1zM318.5 732.8c3.45-.4 8.85-1.1 12-1.5 3.15-.45 9.25-1.25 13.5-1.8 12.8-1.7 28.55-4.45 38.25-6.7 2.75-.65 6.35-1.45 8-1.8 6.6-1.4 23.5-5.85 35-9.25 7.95-2.35 30-9.6 42.5-14 3.6-1.3 7.75-2.75 9.25-3.25s5.45-1.95 8.75-3.25 6.95-2.65 8.05-3c1.15-.35 3-1.15 4.1-1.7 1.7-.85 2.15-1.4 2.6-3.2.3-1.15.75-2.9 1-3.9.3-1 .5-3.2.5-4.85 0-3.75.55-5 2.8-6.5 2.05-1.35 2.5-2.4 3.25-7.25.25-2 .85-4.6 1.25-5.8.8-2.6 1-24.1.2-27.05-.25-.95-1.05-3.75-1.8-6.25-2.05-7.15-2.65-11.05-2.65-18.1-.05-7.35-.05-7.35-4.05-9.8-3.8-2.3-13-9.7-15.8-12.65-.9-.95-1.8-1.7-2.05-1.7-.25 0-1.7 1.5-3.25 3.4-6.6 7.85-8.55 8.95-15.05 8.4-2.95-.25-5.15-.8-8.55-2.25-2.5-1.05-5.1-2.05-5.8-2.2-.7-.2-3.6-.9-6.5-1.6-5.25-1.3-14-2.8-16.65-2.9-.75 0-1.85.4-2.35.95-.9.95-.9 1.05 1.55 4.95 2.8 4.5 4.9 6.85 7.15 8 4.9 2.45 18 13.05 21.3 17.25.8 1 1.75 3.15 2.2 4.8 1.35 5.45 5 17.05 6.65 21.2.4 1.05.65 2.95.55 4.5l-.15 2.75-2.05.15-2.05.15.25 3.9c.2 3.75.2 3.9-.95 4.2-3.75 1-6.3-.45-8.65-4.95-.7-1.35-1.95-3.25-2.8-4.2l-1.5-1.75.7 1.8c.4 1 .9 3.5 1.1 5.6.4 4.7.05 5.35-3.3 5.35-2.1 0-2.6-.2-3.95-1.75-1.8-2.05-2.9-4.1-4.8-9-1.7-4.35-3.25-6.65-5.75-8.7l-2-1.6.3 1.65c.2.9.75 2.65 1.3 3.9 1.8 4.05 2.45 6.7 2.75 11.05.3 4.1.25 4.35-.9 5.1-3.2 2.25-6.9.05-9.65-5.85-2.55-5.45-7.3-19.75-7.3-22.05 0-.6-.2-1.75-.45-2.55-.9-2.9-2.55-10.65-2.55-12.1 0-.8-.55-2.2-1.25-3.15-.7-.95-2-2.7-2.9-3.9-2.65-3.65-2.75-3.65-6.9 0-8.1 7.1-13.25 10.55-23.25 15.7-8.95 4.55-8.2 3.7-12.4 13.95-5.35 12.85-8.4 17.5-13.55 20.7-3.05 1.85-12.55 5.4-20.3 7.6-5.55 1.55-9.05 2.95-15.2 6-7.9 3.95-12.9 5.65-22.5 7.5-2.9.6-5.25 2.05-5.25 3.25 0 .35-.45 1.2-1 1.85-1.05 1.35-.9 1.9.55 1.9 1.4 0 2.45 1.4 2.45 3.3 0 2.45-.55 3.2-3.45 5.2-1.4.95-2.55 1.9-2.55 2.05 0 .15.45.7 1 1.2.8.7 1 1.55 1 4.05 0 2.8-.15 3.2-1.45 4.3-.8.6-2.1 1.5-2.9 1.95l-1.5.85-.25 9.65c-.25 9.6 0 12.55 1.1 13.65.3.3 2.05.7 3.9.9 5.65.55 26.45.05 33.1-.8zm225.6-63.85c2.55-1.1 5.55-2.35 6.65-2.7 1.1-.35 2.9-1.1 4-1.65 1.1-.6 5.15-2.35 9-3.9 13.8-5.55 14.1-5.7 27.25-11.6 4-1.75 8.7-3.8 10.5-4.45 5.7-2.15 23.5-8 31.5-10.35 4.25-1.2 8.75-2.55 10-2.95 1.25-.45 7.45-2.1 13.75-3.8 28.2-7.4 38.4-9.55 66.75-14 12.65-2 26.8-3.4 39-3.9 24.4-.95 41.85.1 59 3.55 6.25 1.25 18.9 5.65 24.75 8.65 5.4 2.75 11.95 6.9 15.15 9.7.9.8 1.8 1.45 2.05 1.45.2 0 .75-1.5 1.15-3.35.45-1.9 1.7-7.4 2.85-12.3 2.9-12.55 4.8-22.25 6.3-32.1.7-4.65 1.5-9.5 1.75-10.75.4-2.15.85-5.95 2-16.9.3-2.8.45-5.3.3-5.55-.2-.25-3.55-2.25-7.55-4.5-9.2-5.1-9.1-5.05-9.8-6.35-.3-.65-2.25-2-4.35-3.05-4.45-2.25-8.75-4.55-12.85-6.8-2.9-1.6-6.15-3.3-25-13.1-8.85-4.65-36.1-18.25-36.45-18.25-.1 0-3.85-1.75-8.35-3.95-15-7.2-29.05-13.1-40.95-17.3-2.05-.75-6.9-2.45-10.75-3.85-18.25-6.55-29.75-10.3-29.75-9.7 0 .9 1.95 3.3 2.65 3.3 1.7 0 14.05 14.25 15.05 17.4.2.65 2.05 2.85 4.05 4.9 4.35 4.45 5.45 6.5 5.1 9.35-.2 1.55-.75 2.4-2.35 3.8-2.05 1.8-2.1 1.9-2.25 5.3-.3 8.6-4.8 19.65-11 27-1.45 1.7-2.95 3.7-3.35 4.45-1.75 3.3-11.55 9.4-18.35 11.35-5.45 1.55-14.7 2.25-20.6 1.5-5.8-.7-12.75-2.85-16.6-5.15-3.75-2.2-8.85-5.9-8.85-6.4 0-.25-1.5-2.3-3.35-4.6-5.8-7.1-8-11.05-9.95-17.7-1.1-3.85-1.2-5.1-1.2-13.9 0-8.4-.1-9.75-.8-10-.45-.15-4.2-.3-8.35-.35-4.2 0-15.7-.4-25.6-.9l-18-.9-3.25-1.55c-4.6-2.25-9.95-6.15-11.25-8.25-1.55-2.6-2.65-3.75-5.5-5.65-1.35-.9-3.75-2.7-5.25-3.9-1.5-1.25-3.9-2.8-5.25-3.45-3.6-1.7-7.45-6.95-12-16.45-1.3-2.7-2.4-4.9-2.5-4.9-.85 0-6.6 3.85-8.55 5.7-2.15 2.1-7.75 6.3-8.35 6.3-.15 0-1.45.75-2.9 1.65-1.5.9-3.8 2.3-5.2 3.15-2.8 1.65-13.3 11.65-14.7 14l-.95 1.55 2.75 2.7c3.05 3 4.1 4.4 8.9 11.95 6.8 10.65 9.1 13.85 13.75 19.3 2.6 3.1 5.8 6.9 7.1 8.5 1.3 1.65 4.3 5 6.7 7.45 2.35 2.5 4.7 5.3 5.25 6.35.5 1 1.1 1.9 1.35 2 1.1.45 2.6 3.5 2.9 5.95.55 4.7 5.5 13.9 9 16.85 1.9 1.5 7.7 9.35 7.7 10.3 0 .15.75 1.8 1.65 3.65 1.6 3.35 1.6 3.5 1.6 10.65-.05 5.75-.25 8.3-1.2 12.25-.95 4.2-1.2 7.25-1.55 18.75-.25 7.55-.6 14.9-.75 16.25-.15 1.4-1.45 5.95-2.85 10.2-2.2 6.6-2.8 8-4.5 9.7-1.6 1.7-1.9 2.3-1.65 3.35.65 2.4.85 9.5.35 10.95-.45 1.25-.35 2.05.25 2.05.05 0 2.2-.9 4.75-2.05zm94.75-199.75c.15-.35.5-.7.75-.7.3 0 1.6-.6 2.85-1.4 10.15-6.1 22.4-7.8 37.25-5.3 2.65.5 2-.6-.85-1.3-2.2-.55-8.85-2.5-13.1-3.85-1.35-.45-3.75-1.1-5.25-1.45-1.5-.3-6.35-1.6-10.75-2.85-9.15-2.6-22.45-5.7-32.25-7.6-3.7-.7-8.1-1.6-9.75-2-1.65-.4-4.9-1.05-7.25-1.5-2.35-.4-6.25-1.05-8.75-1.5-2.45-.45-6.85-1.15-9.75-1.5-12.35-1.7-16.3-2.25-17-2.5-.4-.15 1.35 1.65 3.9 4.05 5.45 5.05 9.3 10.3 10.4 14.05 1.3 4.4 1.85 4.8 6.6 4.7 3-.1 4.45.1 5.7.75.9.5 4.25 1.6 7.4 2.45 3.15.9 9.05 2.55 13.1 3.7 4.05 1.15 8.55 2.3 10 2.6 1.45.25 3.45.85 4.4 1.25.95.4 3.45 1 5.5 1.35 4 .7 6.2.25 6.85-1.45z"/><path d="M529.8 855.8c-4.5-1.9-6.45-4.1-8.15-9.25-1.35-4.2-1.4-4.55-1.35-15.05 0-11 .15-12.2 2.7-24.25 1.35-6.35 4.05-13.25 7.25-18.5 3.85-6.35 5.4-7.75 12.75-11.35 3.15-1.55 14.4-1.95 17.75-.7 4.95 1.9 5.8 3.8 4.8 10.5-.85 5.45-1.45 6.3-4.4 6.3-1.95 0-2.85-.35-5.3-2.1l-3-2.05-1.7.95c-.95.5-2.4 1.7-3.2 2.7-1.65 1.95-4.95 8.45-4.95 9.65 0 .4-.75 2.2-1.65 3.95-2.15 4.05-4.5 14.75-5.15 23.65-.55 6.6 1.5 11.65 5 12.55.95.2 2.4-.3 5.75-2 4.85-2.5 7.4-2.9 8.85-1.45.7.75.8 1.5.5 5.3-.4 5.4-1.15 7.3-3.35 8.95-3.05 2.3-6.15 3-13.45 3.25-6.3.15-6.95.1-9.7-1.05zM202.75 855.5l-2-.25-.15-3.45c-.1-1.9.1-4.6.4-6 .6-2.6 1.3-6.75 3-16.8 1.55-9.45 4.35-25.2 6-34.25.85-4.65 1.8-9.95 2.1-11.75.25-1.8.75-3.8 1.1-4.5l.6-1.25 14.85-.15c10.3-.05 15.2.05 15.95.45.95.5 1 .85.8 4.9-.3 4.85-1 6.85-2.6 7.25-.55.15-4 .3-7.65.3-7.6 0-7.8.1-8.6 4.15-.7 3.65-1.95 10.35-2.2 12-.3 2 .75 2.35 7.4 2.35 5.7 0 5.8 0 6.35 1.25.75 1.7-.15 10.15-1.15 10.8-.4.25-3.3.45-6.45.5-8.3.1-8.65.2-9.1 2.95-.2 1.25-.8 4.5-1.35 7.25-1.8 9.1-2 10.45-1.35 10.85.3.2 3.8.4 7.85.4 4.95 0 7.45.2 7.85.6.35.35.6 1.6.6 2.9-.05 2.8-1.2 8.4-1.9 9.1-.55.55-26.45.9-30.35.4zM245.15 855.5c-1.05-.4-1.15-.8-1.15-3.85 0-1.85.35-5.05.75-7.15.9-4.25 5.1-27.7 5.8-32.25.25-1.65.9-5.35 1.45-8.25.5-2.9 1.55-8.5 2.25-12.5 1.95-10.85 2.6-13.6 3.35-14.05.35-.25 3.4-.45 6.75-.45 7.15 0 7.65.25 7.65 3.95 0 2.6-1.9 14.25-4.75 29.55-1.05 5.35-2.15 11.65-2.5 14-.35 2.35-1.15 7.05-1.75 10.45-.55 3.4-.9 6.55-.75 6.95.25.65 1.35.7 7.45.45 8.65-.35 9.3-.1 9.3 3.5 0 3.5-1 8.55-1.85 9.2-.9.8-30.25 1.15-32 .45zM330.9 855.65c-2.1-.2-2.45-.35-2.75-1.55-.4-1.75 1.65-15.85 4.1-27.85.75-3.8 3.75-20.05 4.1-22.5.15-.8.65-3.95 1.2-6.95.7-4.05.8-5.6.4-6.15-.4-.45-1.8-.65-4.4-.65-2.35 0-4.1-.25-4.45-.6-.75-.75-.8-7.45-.1-9.85.25-.95.75-1.9 1.1-2.15 1.1-.65 36.1-.5 36.8.2.75.75.8 7.65.1 9.75-.75 2.05-2.35 2.65-7 2.65-4.6 0-5.2.5-5.75 4.5-.15 1.25-.75 4.5-1.25 7.25-.55 2.75-1.45 7.8-2 11.25-1.5 9.05-1.85 10.9-3.45 19.75-.8 4.4-1.75 9.8-2.1 12-.9 6.1-1.85 9.85-2.55 10.3-.35.25-1.2.45-1.9.45s-2.7.1-4.5.2c-1.8.1-4.3.1-5.6-.05zM365.5 855.7c-4.1-.5-4-.4-4-3.85 0-1.7.45-5.35.95-8.1.5-2.75 1.2-6.55 1.55-8.5.3-1.9 1-5.75 1.5-8.5s1.3-7.15 1.7-9.75c.4-2.6 1-6.1 1.3-7.75.3-1.65.85-4.7 1.25-6.75.35-2.05 1.15-6.45 1.7-9.75.6-3.3 1.35-7.55 1.6-9.45.7-4.55 1.2-5.7 2.65-6.1.65-.15 5.2-.2 10.1-.1 10.15.2 11.95.7 15.3 4.15 2.85 2.95 3.65 6.15 3.6 14.5-.05 5.7-.25 7.5-1.1 9.8-1.2 3.3-2.95 6.25-5.4 8.95l-1.8 1.95.8 2.15c1.8 4.85 3.25 16.25 3.3 25.85 0 1.2.1 2.1.25 1.95.15-.15 1.5-3.85 3.05-8.2 5.1-14.65 6.5-18.45 7.15-19.7.4-.65.9-1.9 1.1-2.75.45-1.65 2.65-7.9 3.4-9.5.4-.9 4.2-11.55 8.35-23.45.95-2.75 2-5.3 2.3-5.65.4-.5 2.45-.65 7.95-.65 6.55 0 7.45.1 7.85.9.3.45.6 17.65.8 38.95l.3 38.15-1.3.8c-1.05.7-2.15.8-7.05.55-3.2-.15-6-.5-6.35-.85-.35-.35-.65-3.5-.8-8.15l-.25-7.6-2.55-.15c-3.65-.2-4.8.95-7 6.9-.95 2.6-2 5.55-2.25 6.5-.95 3.25-1 3.25-11.35 3.3-12.1.05-18-.3-18.8-1.1-.45-.4-.75-3.3-.95-9.05-.2-4.6-.65-10.65-1.05-13.4-.45-2.75-.8-5.15-.8-5.35 0-.25-.2-.4-.5-.4-.25 0-.5.75-.5 1.65 0 1.65-.9 6.85-2.5 14.6-.5 2.5-1.1 6-1.25 7.85-.45 4.7-.65 4.85-6 5.1-2.45.1-5.3.1-6.25 0zm61.7-30.5c.15-.45.3-2.4.25-4.35v-3.6L426.2 821c-.65 2.05-1.2 4.05-1.2 4.4 0 .9 1.85.75 2.2-.2zm-39.45-23.75c.8-2.9 1-7.95.35-7.95-.2 0-.85 2.7-1.4 6.05-.85 4.75-.9 5.85-.35 5.3.4-.35 1-1.9 1.4-3.4zM448.55 855.2c-1.6-1.15-1.45-2.55 1.9-21.7 1.8-10.45 2.5-14.25 3-16.25s1.05-5.2 2.3-13.25c.35-2.35 1.45-8.95 2.45-14.75 1.55-8.95 2-10.65 2.95-11.45 1-.85 1.95-.9 12.1-.75 10.8.2 11.05.25 13.75 1.55 3.8 1.9 7.2 5.25 8.2 8.2 1.2 3.6 1.1 14.55-.2 18.8-2.95 9.55-10.5 15.85-20.3 16.95-2.45.25-4.8.6-5.3.75-.95.3-1.45 2.2-2.9 11.7-.6 3.7-1.35 8.2-1.75 10-.35 1.8-.8 4.5-.95 6-.2 1.5-.55 3.05-.75 3.45-1 1.6-12.45 2.15-14.5.75zm25.3-47.5c2.75-1.6 4.95-4.6 5.95-8.05.7-2.45.7-2.75-.25-4.85-1-2.3-3.35-4.05-4.7-3.5-.75.25-2.35 7.05-2.35 9.95 0 .85-.3 2.9-.7 4.65-.35 1.7-.5 3.1-.4 3.1.15 0 1.25-.6 2.45-1.3zM498.25 855.65c-2.15-.1-4.25-.45-4.6-.75-1.25-1-.9-4.15 2.6-24.15.4-2.2 1.05-5.9 1.5-8.25.45-2.35 1.35-7.8 2.05-12.15.65-4.4 1.5-9.45 1.9-11.25 1.5-7.1 2.3-11.5 2.85-15.8.85-6.25.95-6.3 8.5-6.3 3.3 0 6.45.25 7 .5.8.45.95 1.1.95 3.6 0 1.65-.35 4.85-.75 7.1s-1.1 5.75-1.45 7.8c-.4 2.05-1.55 8.6-2.55 14.5-.95 5.9-2 11.45-2.3 12.35-.25.85-.7 3.55-1 5.95-.25 2.4-.7 4.65-.9 4.9-.25.3-.6 1.9-.8 3.55-.55 5.35-2.85 17-3.5 17.65-.7.75-4.05 1-9.5.75zM562.05 855.2c-1.4-1-1.4-3.7-.05-11 .55-3 1.35-7.45 1.75-9.95.4-2.45 1.2-6.95 1.8-10 .55-3 1.25-7.2 1.45-9.25.25-2.05.7-4.6 1.05-5.7.3-1.05.85-3.75 1.2-6 .4-2.2 1.05-5.95 1.45-8.3.4-2.35.9-5.15 1.05-6.25.95-6 1.95-10.1 2.65-10.85.65-.75 1.7-.9 7.1-.9 5 0 6.5.15 7 .75 1.2 1.45.3 9-3.3 27.15-.35 2.05-.55 3.9-.4 4.15.15.25 1.6.45 3.2.45 2.55 0 3.1-.15 3.7-1.1.4-.65 1.55-5.85 2.5-11.65 2.75-16.25 3.15-18.2 3.8-19 .5-.6 2-.75 7.3-.75 6.1 0 6.7.1 7.2.95.75 1.45.6 3.8-.55 10.4-.6 3.25-1.25 7.25-1.45 8.9-.25 1.65-.9 5.5-1.5 8.5-.55 3.05-1.8 10-2.8 15.5-.95 5.5-2.2 12.6-2.75 15.75-.55 3.15-1.3 7.65-1.7 10-1 6.4-1.7 8.1-3.5 8.6-.8.25-3.95.3-7 .15-7.5-.35-7.65-.65-5.8-10.15.5-2.65 1.3-7.1 1.75-9.85.5-2.75 1.2-6.65 1.6-8.6.45-2 .65-3.85.45-4.15-.4-.65-5-.65-6.2 0-.6.3-1.1 1.5-1.45 3.35-1.3 6.75-2.15 11.35-3.35 18.9-.75 4.4-1.65 8.5-2 9.1-.85 1.25-2.65 1.6-8.8 1.6-3 0-4.65-.25-5.4-.75zM610.9 855.45c-1.25-.7-1.2-5.55.1-12.7.5-3 1.2-6.95 1.5-8.75.3-1.8.8-4.5 1.1-6 .25-1.5.8-4.55 1.15-6.75.35-2.2 1.7-9.95 3-17.25 1.25-7.3 2.5-14.5 2.75-16s.7-4.25 1.05-6.15c.3-1.85.9-3.7 1.3-4.1.55-.6 2.15-.75 7.15-.75 7.95 0 8.25.2 7.85 4.7-.4 4.1-1.25 9.6-1.8 12.05-.3 1.1-1 5.05-1.55 8.75-.6 3.7-1.35 8.2-1.75 10-.4 1.8-1.3 6.65-2 10.75-.7 4.15-1.5 8.5-1.75 9.75-.3 1.25-.85 4.35-1.25 6.9-.4 2.55-.85 4.85-1 5.1-.15.25-.5 2.45-.8 4.85-.25 2.4-.75 4.65-1.1 4.95-.8.8-12.8 1.35-13.95.65zM643.5 855.55c-1.2-.35-1.25-.45-1.2-4.85 0-2.45.55-7.05 1.15-10.2 1-5.3 1.95-10.45 3.8-20.75.4-2.2 1.1-6.15 1.5-8.75.45-2.6 1.4-8.05 2.1-12.05.7-4.05 1.15-7.7 1-8.15-.25-.65-1.1-.8-4.3-.8-4.75 0-5.55-.55-5.55-3.65 0-3.65.95-8.05 1.85-8.7.65-.5 5.15-.65 18.45-.65 9.7 0 17.95.15 18.4.3 1.55.6.7 10.25-1.05 11.95-.5.55-1.9.75-5.1.75-2.75 0-4.65.25-5.15.65-.75.55-2.15 6.65-3.35 14.6-.3 1.65-.85 4.9-1.25 7.25-1.95 10.95-3.9 22.15-4.55 26.25-1.65 10.3-2.75 15.45-3.5 16.2-.6.6-2.05.8-6.4.85-3.05.05-6.15-.05-6.85-.25z"/><g fill="#fff"><path d="M0 539.5V0h1080v1079H0V539.5zm524.75 402c19-1.25 38.5-4.2 52.75-8 18.3-4.9 31.1-9 38.25-12.25 1.4-.6 5.1-2.2 8.25-3.5 3.15-1.25 8.25-3.5 11.25-4.95 3.05-1.45 6.3-3 7.25-3.45.95-.45 2.65-1.4 3.75-2.1 1.1-.7 2.35-1.4 2.75-1.55 1.15-.45 2.65-1.15 3.75-1.85.55-.35 3.35-1.95 6.2-3.6 2.85-1.65 5.9-3.45 6.85-4 .9-.55 3.1-1.85 4.85-2.85 1.75-1.05 3.5-2.2 3.85-2.65.35-.4.9-.75 1.25-.75.3 0 1-.45 1.5-1s1.1-1 1.35-1c.65 0 17.55-11.65 24.05-16.6 1.7-1.3 4.1-3.1 5.3-4 1.2-.9 3.95-3.1 6.15-4.9 2.2-1.8 5.15-4.1 6.6-5.15 1.4-1.05 3.25-2.55 4.1-3.35.9-.8 2.95-2.45 4.55-3.7 1.65-1.25 3.3-2.65 3.7-3.1.4-.5 2.05-2 3.7-3.35 7.3-6.05 33.65-31.65 38.95-37.85 1.1-1.25 4.2-4.75 7-7.8 9.15-10 16.4-18.7 23.75-28.4 1.5-1.95 3.65-4.8 4.85-6.3 3.35-4.25 9.45-12.6 12.1-16.5.45-.7 2.25-3.2 3.95-5.6 1.75-2.4 3.15-4.5 3.15-4.6 0-.15 1.2-2.1 2.7-4.4 8.95-13.7 10.7-16.6 17.1-28.4 2.05-3.7 3.9-7.1 4.2-7.5.95-1.45 4.7-8.8 6.4-12.5 1.55-3.45 4.7-10.2 5.6-12 .2-.4.9-.75 1.5-.75 1 0 1.5.8 3.55 5.7 6.2 14.7 11 33.1 12.4 47.75 1.5 15.2-.25 32.4-4.7 46-6.3 19.3-13.55 30.85-29.3 46.7-4.4 4.45-6 6.6-4.9 6.6.95 0 28.35-27.95 31.15-31.75 10.85-14.8 16.5-27.85 19.85-45.75 1.55-8.2 1.9-28.6.7-37.85-1.4-10.45-1.6-11.7-2.7-16.4-.6-2.45-1.3-5.75-1.6-7.25-1.3-6.75-6.05-20.45-10.9-31.4-2.35-5.3-2.55-7.35-1.1-11.55.55-1.55 1.8-5.5 2.8-8.8 1-3.3 2.35-7.8 3-10 2.45-7.85 8.5-31.05 11.55-43.95 1.15-5.1 1.6-5.8 3.6-5.8 1.85 0 3.6 1.2 7.2 4.85 4.85 4.95 10 13.85 13.15 22.65.65 1.8 1.85 4.85 2.65 6.75 1.4 3.35 4 11.05 5.8 17.4 1.55 5.3 2.55 3.2 2.05-4.55-.9-15.15-2.35-21.95-7.75-36.85-.6-1.65-1.4-3.55-1.75-4.25-.4-.7-2.15-4.3-4-8-1.8-3.7-3.95-7.85-4.75-9.25-.8-1.35-1.9-3.3-2.45-4.25-1-1.75-6.85-10.05-8.15-11.5-3.15-3.6-5.45-6.85-5.9-8.4-.55-2.05-.2-7.8 1.5-25.3.55-5.75 1.25-12.95 1.5-16 .75-7.65 2.05-19.3 2.3-20.75.2-1 .45-1.1 1.85-.9.9.15 3.4.5 5.6.85 2.95.45 4.35.5 5.4.05 1.6-.65 2.8-3.1 1.75-3.7-8.75-5.1-12.1-7.55-16.5-11.9-4.05-4-4.85-5.1-5.1-6.75-.85-5.5-4.35-20.45-6.7-28.8-1.25-4.35-6.65-19.25-8.6-23.65-.5-1.1-1.85-4.25-3.05-7-3.3-7.7-10.85-22.35-13.15-25.5-.6-.8-1.85-2.85-2.75-4.5-1.8-3.25-10.4-16-12.5-18.55-.7-.9-2.3-2.85-3.55-4.45-10.6-13.55-28.3-31.35-39.6-39.85-1.45-1.1-4.8-3.25-7.4-4.8-2.6-1.55-6.15-3.8-7.85-4.95-1.7-1.2-3.2-2.15-3.3-2.15-.1 0-1.95-1-4.15-2.25-3.75-2.15-5.7-2.75-5.7-1.8 0 .6 11.45 9.1 21.65 16.05 10.85 7.4 28.3 24.5 37.2 36.45 1.1 1.55 2.5 3.35 3.05 4.05 3.8 4.9 16 24.2 16.9 26.8.2.55.75 1.5 1.2 2.2 1.75 2.5 7.4 14.2 12.75 26.25 1.9 4.25 5.3 13.45 7.7 20.75 1.15 3.45 2.3 6.95 2.6 7.75 1.5 4.2 4.45 15.05 4.25 15.6-.5 1.3-1.95.6-5.95-2.9-2.25-2-7.1-6.2-10.75-9.4-10.7-9.3-13.2-11.5-19.35-17.05-3.2-2.9-7.3-6.45-9.15-7.9-1.8-1.5-5.65-4.9-8.55-7.6-2.95-2.65-6.75-6.05-8.55-7.55-1.8-1.45-4.15-3.45-5.25-4.5-1.1-1-3.9-3.45-6.25-5.45-5.6-4.8-9.2-7.95-14.15-12.5-2.3-2.05-5.9-5.2-8.1-7-2.15-1.8-5.55-4.7-7.5-6.5-11.35-10.3-18.2-16.2-22-19-1.65-1.2-4.7-3.55-6.8-5.2-6.1-4.85-34-24.15-41-28.35-1.2-.75-5.3-3.3-9.1-5.7-9.75-6.1-19.75-11.8-30.45-17.4-2.3-1.2-5.95-3.2-8.15-4.45s-4.5-2.4-5.15-2.6c-.65-.25-3.15-1.35-5.5-2.55-9.15-4.5-26.75-12-36.1-15.35-22.85-8.3-41.25-13.25-62-16.7-2.35-.4-6.15-1-8.5-1.4-6.6-1.15-15.25-1.55-34.25-1.55-16.65 0-28.9.65-32.5 1.75-.8.25-3.85.95-6.75 1.55-13.7 2.8-18.45 4.15-27.5 7.75-10.2 4.1-9.35 4.95 2.8 2.75 13.6-2.4 25.7-3.65 39.45-4 14.6-.35 33.8.05 39.5.85 2.2.3 6.6.8 9.75 1.1 14.9 1.4 37.25 6.35 53.25 11.8 30 10.15 54.65 22.3 80.15 39.55 2.95 2 6.3 4.25 7.45 5 3.45 2.3 21.3 15.6 22.75 17 .75.7 1.75 1.55 2.3 1.85.55.3 2.3 1.55 3.85 2.8 4.4 3.4 6.05 4.6 12 8.75 3.05 2.1 7.15 4.95 9.15 6.4 1.95 1.45 5 3.6 6.7 4.8 1.75 1.25 4.95 3.65 7.15 5.35 5.9 4.65 14.7 11.35 21.25 16.2 3.15 2.3 7 5.25 8.55 6.5 1.5 1.25 3.45 2.75 4.25 3.35.8.6 3.8 2.95 6.7 5.15 2.9 2.2 7.35 5.65 9.95 7.65 2.6 2 7 5.4 9.75 7.55 2.8 2.2 6.3 4.95 7.8 6.1 1.5 1.2 3.1 2.45 3.5 2.8.4.35 3.15 2.5 6.1 4.8 2.95 2.3 5.65 4.4 6 4.75.35.35 2.35 1.85 4.4 3.35 5.5 4 20.6 15.85 29.75 23.4 1.8 1.4 3.35 2.6 3.55 2.6.15 0 1.2.8 2.35 1.75 1.15 1 4.7 3.8 7.85 6.25 11.7 9.15 13.95 11.1 14.5 12.7 1.7 4.85 2.65 34.3 1.45 45.2-.8 7.75-3.3 16.95-5.15 19-.8.9-1.3 1.05-2.55.8-.8-.15-1.7-.5-2-.7-.25-.25-4.45-2.35-9.25-4.7-4.8-2.4-9.55-4.8-10.5-5.35-.95-.55-2.65-1.4-3.75-1.85-1.1-.45-5.45-2.55-9.75-4.65-14.15-6.9-18.2-8.85-25.75-12.25-4.1-1.8-11.55-5.3-16.5-7.7-4.95-2.4-9.55-4.55-10.25-4.75-.7-.2-4.5-1.9-8.5-3.75s-7.8-3.55-8.5-3.75c-.7-.2-3.2-1.35-5.6-2.55-2.4-1.2-4.6-2.2-4.9-2.2-.3 0-2.4-.9-4.75-2s-4.4-2-4.55-2c-.3 0-8.6-3.45-10.95-4.5-1.45-.65-11.55-4.75-18.25-7.35-3.15-1.25-8-3.1-10.75-4.2-17.4-6.9-49.8-17.9-69-23.45-15.3-4.4-32.3-8.6-44.5-11-4.1-.8-8.6-1.7-10-2-1.35-.3-4.5-.85-7-1.25-2.45-.4-5.85-.95-7.5-1.25-1.65-.25-5-.85-7.5-1.25-2.45-.45-6.65-1-9.35-1.25-2.65-.25-5.15-.65-5.65-.8-.45-.2-1.6-1.35-2.55-2.65-.95-1.25-3.5-3.75-5.65-5.55-4-3.35-5.9-4.25-12.3-5.6l-3-.65-3.1-4.45c-1.75-2.45-3.15-4.8-3.15-5.3 0-.45.8-2.65 1.75-4.9 3.7-8.45 4.6-23.45 2.1-33.2-3.15-12.15-8.25-18.95-17.75-23.45-3.95-1.9-4.4-2-9-2-4 0-5.45.2-8.35 1.3C485.85 328.4 481.9 332 479 340c-2 5.45-5.05 11.35-7.15 13.9-1.3 1.55-1.85 2.85-2.3 5.25-.75 4.3-.7 6.8.2 8.55.9 1.65.95 3.8.25 6.4-.75 2.65-1.55 3.2-4.85 3.6-1.6.15-7 1-12.05 1.85-5.65.9-13.35 1.75-20.05 2.15-12.95.8-12.95.8-19.75 7.3-3.5 3.3-5.7 4.95-8.85 6.55-7.4 3.7-11.1 6.7-14 11.5-4.2 6.9-3.95 6.65-7.2 7.25-1.65.3-3.9.8-5 1.1-1.1.35-2.75.6-3.7.6-.95 0-3 .3-4.5.7-1.55.4-4.95 1.2-7.55 1.8-16.95 3.8-36.15 9.75-50.5 15.7-3.7 1.55-7.15 3.05-7.6 3.3-.45.25-4.45 2.15-8.9 4.25-8.05 3.75-21 10.9-23.65 13.1-.8.65-1.65 1.15-1.9 1.15-.5 0-5.55 3.25-9.45 6.1-1.25.9-3.4 2.45-4.85 3.5-4.35 3.05-11.65 9.3-17.15 14.7-2.9 2.8-5.7 5.55-6.25 6.05-3.8 3.65-12.35 13.95-13.7 16.55-1.15 2.15.45 2.45 2.55.45.9-.85 3.65-2.65 7.2-4.75 1.1-.6 4-2.35 6.45-3.9 2.5-1.55 5.5-3.4 6.75-4.1 1.25-.7 2.6-1.55 3-1.85 2-1.6 22.45-12 31.45-16.05 18.45-8.25 19.65-8.7 35.3-14.35 7.95-2.85 12.3-4.25 24-7.9 6.1-1.85 17.95-4.95 19.1-4.95.6 0 1.15.2 1.15.4 0 .8-2.85 4.3-5.75 7.1-3 2.9-6.75 7.8-8.9 11.5-.9 1.55-1.45 3.55-1.8 6.35-.5 3.9-1.8 7.5-4.5 12.1-.55.95-1.15 2.75-1.3 4-1 7.9-3.25 14.45-6.15 17.75-1 1.05-1.9 2.75-5.7 10.5-4.05 8.2-5.9 15.6-6.7 26.6-.35 4.9.2 8.5 1.85 11.8.75 1.5.95 3 .95 7.75 0 6.3.75 10.2 3.95 20.15 2.4 7.65 2.6 8.8 1.75 12.75-.45 2.25-.8 8-1 16-.2 10.55-.4 13.1-1.3 16.4-1.15 4.25-3.15 6.85-5.25 6.85-.65 0-2 .35-3 .75s-4.65 1.55-8.1 2.55c-7.15 2.05-11.85 4.3-15.85 7.55-4.05 3.3-10.25 8.15-11.3 8.85-.65.4-2.75 1.1-4.65 1.55-1.95.45-4.4 1.35-5.55 2-5.25 3.05-8.5 3.9-16.45 4.25-7.3.3-7.6.35-11.55 2.15-2.25 1-5.2 2-6.5 2.15-4.65.65-5.2 1.2-7.25 7.45-.95 2.95-1.15 4.9-1.35 12.65-.1 5-.05 9.85.1 10.8.3 1.6 2.75 4.55 6 7.15l1.35 1.15-.3 7.1c-.2 3.95-.1 10.3.15 14.15.45 6.2.65 7.3 1.85 9.5.8 1.4 1.65 2.75 1.95 3 .35.3 1.25 1.35 2.05 2.4 1.6 2.15 7.65 7.25 10 8.45.85.45 2.85 1.5 4.5 2.35 4.1 2.15 5.9 2.75 14.8 4.65l7.7 1.65h15.5c9.35 0 17.7-.25 21-.65 8.85-1 29.85-4.1 31.55-4.65.85-.25 3.35-.8 5.5-1.2 7.55-1.35 19.1-4.15 31.7-7.55 3.45-.95 8.05-2.2 10.25-2.75 2.2-.6 6.05-1.7 8.5-2.45 2.5-.75 7.2-2.1 10.5-3 3.3-.9 8.25-2.4 11-3.25 2.75-.9 7.05-2.25 9.5-3 2.5-.75 6.1-1.9 8-2.6 1.95-.7 7.35-2.45 12-3.95 8.9-2.8 28.9-9.5 40.1-13.4 3.6-1.25 7.3-2.3 8.15-2.3 1.65 0 1.8.25 3.05 4.5 1.3 4.25 8.5 10.8 14.1 12.8 4.35 1.55 9 2.25 12.85 1.9 3.7-.3 3.8-.25 8.55 2 3.6 1.7 4.95 2.6 5.4 3.65 1.8 4 6.7 8.6 11.25 10.55 2.05.9 11.8 1.75 16.8 1.45 5.1-.3 9-1.8 11.35-4.5 5.5-6.3-.75-24.15-10.3-29.4-4.75-2.6-6.95-3.65-10.8-5-4.5-1.6-6.55-3.35-5.9-5.1.2-.6.35-1.85.4-2.8 0-1.45-.3-1.9-1.65-2.7-.9-.55-2.7-1.25-4-1.55-1.95-.5-2.35-.8-2.35-1.75 0-1.25-.3-1.15 16.35-7.05 3.75-1.3 7.1-2.55 7.45-2.75.3-.2 1.25-.55 2.15-.75.85-.2 4.8-1.55 8.8-3 4-1.4 9.5-3.35 12.25-4.25 2.75-.95 10.05-3.4 16.25-5.55 14.7-5 15.7-5.35 22.75-7.45 3.3-1 7.6-2.35 9.5-3 1.95-.6 5.65-1.75 8.25-2.45 2.6-.75 5.75-1.7 7-2.05 7.8-2.45 18.65-5.3 33-8.7 6.15-1.45 18.35-3.75 32-6.1 1.5-.25 7.6-1 13.5-1.7 34.55-4 64.8-2.45 86 4.5 8.85 2.85 11.5 3.9 14.35 5.5 1.35.75 3.4 1.95 4.65 2.65 7.4 4.15 12.5 8.95 12.5 11.7 0 .9-.8 3.9-1.8 6.65-.95 2.75-2.05 6-2.45 7.25-.75 2.55-2.8 7.8-4.2 10.75-.55 1.1-1.5 3.25-2.2 4.75-4.9 11.05-12 24.6-16.4 31.3-.95 1.45-2.35 3.75-3.2 5.2-.8 1.4-2 3.25-2.65 4.15-.65.9-2 2.85-3 4.4-5.6 8.5-9.55 14.1-12.85 18.2-1.1 1.4-2.45 3.2-3 3.95-.55.8-1.5 2-2.1 2.7-.65.7-1.15 1.4-1.15 1.55 0 .15-.95 1.3-2.15 2.55-1.15 1.25-3.2 3.6-4.6 5.3-3.95 4.85-7.85 9.45-8.25 9.7-.15.15-2.35 2.5-4.8 5.2-9.35 10.45-23.9 25.1-30.95 31.25-1.35 1.2-3.85 3.45-5.45 5-1.65 1.55-3.6 3.25-4.35 3.8-.75.55-3.6 3.05-6.35 5.5-4.7 4.3-8.75 7.75-12.9 11-1.05.85-2.8 2.3-3.9 3.25-5.6 4.9-10.3 8.5-11.1 8.5-1.15 0-.8-1 .95-2.7 6.6-6.15 11.6-17.4 14.35-32.25 1.9-10.3 2.15-21.6.55-26.4-.5-1.6-1.2-3.9-1.5-5.05-.4-1.5-1.45-3.05-3.2-4.85-3.25-3.35-5.25-3.95-12.1-3.65-4.25.2-5.35.45-7.3 1.55-6.9 4-13.75 14.55-16.9 25.95-1.7 6.35-3.45 16.75-3.8 23.15-.55 9.65 1.1 17 4.9 22.2 2.65 3.6 5.2 4.75 10.85 4.85 3.35.05 5-.2 7.65-1.15 1.9-.7 3.55-1.1 3.7-.95.3.3-2.2 2.8-4.6 4.7-2.25 1.7-6.95 5.2-8.85 6.5-.9.6-3.95 2.8-6.8 4.9-5.1 3.75-12.2 8.65-20.85 14.35-2.45 1.65-6.35 4.2-8.55 5.65-2.25 1.5-4.2 2.7-4.35 2.7-.15 0-1.6.85-3.2 1.95-6.55 4.35-17.2 9.7-23.9 12.05-2.5.9-4.6 1.65-12 4.45-3.55 1.35-9.4 3.25-28.35 9.3-9.65 3.1-35.55 9.3-41.65 10-1.65.15-6.25.85-10.25 1.5-9.95 1.65-24.55 3.1-38.25 3.8-12.65.65-30.6 0-38-1.35-4.5-.8-10.25-.95-10.25-.25 0 1.9 29.85 7.15 45.5 8.05 8.75.5 30.45.5 37.75 0zm22.5-87.25c2.85-1 5.5-2.8 6.3-4.3.7-1.35 1.55-7.35 1.2-8.5-.55-1.65-1.8-1.45-6.7 1.05-4.1 2.05-5.2 2.45-6.6 2.2-3-.6-4.5-1.65-5.6-4.1-2.65-5.75-.2-27.6 4-35.5.9-1.75 1.65-3.5 1.65-3.9 0-1.05 2.4-6.05 4.1-8.55 1.95-2.9 4.65-4.65 7.05-4.65 1.45 0 2.65.5 4.8 2 1.55 1.1 3.2 2 3.7 2 1.25 0 2.2-1.85 2.8-5.65.75-4.45.2-5.65-3.45-7.5-2.65-1.35-3-1.4-8.25-1.25-4.35.2-6 .45-7.75 1.3-7.3 3.55-8.9 5-12.75 11.35-3.2 5.25-5.9 12.15-7.25 18.5-2.45 11.6-2.7 13.4-2.7 22.75-.05 8.85 0 9.45 1.35 13.55 1.7 5.15 3.65 7.35 8.15 9.25 2.65 1.1 3.45 1.2 8.2 1 3.15-.1 6.25-.55 7.75-1.05zm-315.45-.95c.3-.4.8-2.35 1.15-4.3.9-5.05 1.05-5-8-5-6.2 0-7.5-.15-8.2-.8-.5-.55-.7-1.25-.5-1.9.15-.6.5-2.3.8-3.8.3-1.5.95-4.9 1.45-7.5.55-2.6 1.15-5.85 1.3-7.15.45-3.2.6-3.25 9.2-3.3 3.15-.05 6.05-.25 6.4-.5.9-.55 1.75-6.85 1.1-8.1-.5-.85-1.1-.95-6.3-.95-7.5 0-7.9-.2-7.5-4 .2-1.6.9-5.75 1.55-9.3.7-3.5 1.25-6.45 1.25-6.5 0-.1.35-.5.8-.9.6-.65 2.05-.8 7.35-.8 3.65 0 7.1-.15 7.65-.3 1.4-.35 2.15-2.1 2.55-5.7.25-2.6.15-2.95-.75-3.45-.75-.4-5.25-.5-14.45-.45l-13.35.15-.6 1.25c-.35.7-.85 2.7-1.1 4.5-.3 1.8-1.25 7.1-2.1 11.75-1.65 9.05-4.45 24.8-6 34.25-1.7 10.1-2.4 14.2-3 16.85-.3 1.4-.5 3.45-.4 4.5.15 1.8.25 1.9 2.15 2.15 1.1.15 7.6.2 14.5.15 10.5-.05 12.55-.2 13.05-.85zm44 .1c.35-.35.9-2.3 1.25-4.3.85-5.3.9-5.25-8.45-5.15-8.35.1-8.95-.1-8.45-3.1 1.55-8.6 2.55-14.3 3.1-17.85.35-2.35 1.45-8.65 2.5-14 2.15-11.4 4.75-26.8 4.75-28.05 0-1.9-1.35-2.45-6.15-2.45-2.55 0-4.9.2-5.25.45-.75.45-1.4 3.2-3.35 14.05-.7 4-1.75 9.6-2.25 12.5-.55 2.9-1.2 6.6-1.45 8.25-.7 4.55-4.9 28-5.8 32.25-1.1 5.4-1 7.45.3 7.95.6.2 7.25.3 14.85.25 10.65-.1 13.9-.25 14.4-.8zm62.95.6c1.1 0 2.3-.2 2.65-.45.7-.45 1.65-4.2 2.55-10.3.35-2.2 1.3-7.6 2.1-12 1.6-8.85 1.95-10.7 3.45-19.75.55-3.45 1.45-8.5 2-11.25.5-2.75 1.1-6 1.25-7.25.55-4 1.15-4.5 5.75-4.5 4.65 0 6.25-.6 7-2.65.7-2.05.65-6-.1-6.75-.7-.7-32.7-.85-33.8-.2-1.45.95-2.2 7.8-1 9 .35.35 2.1.6 4.4.6 4.25 0 5 .4 5 2.7 0 1.55-1.35 10.1-2.75 17.3-.4 2.05-1.2 6.45-1.75 9.75-.6 3.3-1.35 7.6-1.75 9.5-2.15 10.5-4.3 24.55-3.95 25.45.3.75 3.8 1.3 5.95 1 .55-.1 1.9-.2 3-.2zm36.6-.85c.3-.4.7-2.25.9-4.05.15-1.85.75-5.35 1.25-7.85 1.6-7.6 2.5-12.95 2.5-14.5 0-2.2 1.3-3.9 2.45-3.25.5.25 1.1.85 1.25 1.35.8 2.05 1.85 11.5 2.15 19.3.2 6.3.5 8.6 1 9.15.75.7 3.95.95 9.65.65 1.5-.05 3.45-.1 4.25-.05.85.05 3.75.1 6.45.1 5.45.05 5.9-.1 6.75-3 1.55-5.35 4.15-11.35 5.3-12.35 1.1-1 1.9-1.15 5.25-1.15 2.35 0 4.1.2 4.3.55.15.3.3 3.65.25 7.4-.05 4.95.1 7.05.55 7.7.55.75 1.55.95 5.3 1.05 7.3.2 6.55 4.85 6.25-37.8-.15-20.4-.5-37.05-.75-37.5-.35-.8-1.2-.9-6.35-.9-4.25 0-6.1.2-6.45.65-.3.35-1.35 2.9-2.3 5.65-4.15 11.9-7.95 22.55-8.35 23.45-.75 1.6-2.95 7.85-3.4 9.5-.2.85-.7 2.1-1.1 2.75-.65 1.25-1.85 4.5-7.1 19.5-4.35 12.5-4.9 13.45-5.8 10.15-.3-1.05-.75-6.15-1.05-11.4-.5-9.5-1.65-16.1-3.25-19.25-1.15-2.2-.9-3.65.8-5.3 2.25-2.15 4.85-6.3 6.05-9.6 1.4-3.95 1.55-12.65.25-16.65-1.1-3.35-3.65-6.15-6.85-7.6-1.85-.85-3.55-1.1-9.65-1.25-4.1-.1-7.95-.05-8.65.1-1.45.4-1.95 1.55-2.65 6.1-.25 1.9-1 6.15-1.6 9.45-.55 3.3-1.35 7.7-1.7 9.75-.4 2.05-.95 5.1-1.25 6.75-.3 1.65-.9 5.15-1.3 7.75-.4 2.6-1.2 7-1.7 9.75s-1.2 6.6-1.5 8.5c-.35 1.95-1.05 5.75-1.55 8.5-1.25 6.8-1.25 8.15.2 8.5 4 .9 10.3.55 11.2-.6zm83.5.9c2.2-.05 3.05-1.1 3.4-4.4.2-1.6.65-4.35 1-6.15.4-1.8 1.15-6.3 1.75-10 1.45-9.5 1.95-11.4 2.9-11.7.5-.15 2.85-.5 5.3-.75 9.8-1.1 17.35-7.4 20.3-16.95 1.3-4.15 1.4-12.3.2-15.8-1-2.95-4.4-6.3-8.2-8.2-2.6-1.25-3.1-1.35-12.25-1.5-8.7-.2-9.6-.15-10.6.7-.95.8-1.4 2.45-2.95 11.45-1 5.8-2.1 12.4-2.45 14.75-1.3 8.2-1.8 11.25-2.35 13.5-.6 2.5-1.35 6.75-2.6 14.25-.45 2.75-1.05 6-1.3 7.25s-.85 4.5-1.3 7.25c-.75 4.9-.75 5 .25 5.8.75.6 1.8.8 4.15.65 1.75-.05 3.85-.15 4.75-.15zm47.55-.75c.5-.65 2.85-13 3.35-17.55.2-1.65.55-3.25.8-3.55.2-.25.65-2.5.9-4.9.3-2.4.75-5.1 1-5.95.3-.9 1.35-6.45 2.3-12.35 1-5.9 2.15-12.45 2.55-14.5 2.65-14.1 2.7-14.7 1.25-15.5-.55-.25-3-.5-5.5-.5-5.85 0-6.15.3-7 6.3-.55 4.3-1.35 8.7-2.85 15.8-.4 1.8-1.25 6.85-1.9 11.25-.7 4.35-1.6 9.8-2.05 12.15-1.3 7-2.7 14.85-3.8 21.85-.85 5.3-.95 6.8-.45 7.35.4.55 1.85.8 4.65.9 4.75.15 6.15 0 6.75-.8zm66.45.75c1.85-.1 2.5-1.9 3.9-10.3 1.2-7.55 2.05-12.15 3.35-18.9.35-1.85.85-3.05 1.45-3.35.5-.3 2.65-.5 4.85-.5 5.45 0 5.55.15 4.2 6.4-.6 2.65-1.4 7.1-1.9 9.85-.45 2.75-1.25 7.2-1.75 9.9-1.2 6.1-.95 6.85 2.45 6.9 5.3.1 8.15 0 8.6-.3.65-.4 1.45-3.25 2.25-8.25.4-2.35 1.15-6.85 1.7-10 .55-3.15 1.8-10.25 2.75-15.75 1-5.5 2.25-12.45 2.8-15.5.6-3 1.25-6.85 1.5-8.5.2-1.65.9-5.7 1.45-9 1.5-8.3 1.55-8.25-5.15-8.25-3.95 0-5.3.15-5.8.75-.65.8-1.05 2.75-3.8 19-.95 5.8-2.1 11-2.5 11.65-.65 1-1.1 1.1-5.25 1.1-5.55 0-5.65-.15-4.4-6.7 3.7-19.1 4.4-23.9 3.45-25.05-.95-1.15-10.05-1.05-11.1.15-.7.75-1.7 4.85-2.65 10.85-.15 1.1-.65 3.9-1.05 6.25s-1.05 6.1-1.45 8.3c-.35 2.25-.9 4.95-1.2 6-.35 1.1-.8 3.65-1.05 5.7-.2 2.05-.9 6.35-1.5 9.5-.6 3.15-1.4 7.55-1.75 9.75-.35 2.2-1.15 6.9-1.8 10.45-1.15 6.4-1.15 6.45-.15 7.25.95.75 3.15.9 9.55.6zm50.5-.7c.35-.35.85-2.6 1.1-5 .3-2.4.65-4.6.8-4.85.15-.25.6-2.55 1-5.1s.95-5.65 1.25-6.9c.25-1.25 1.05-5.6 1.75-9.75.7-4.1 1.6-8.95 2-10.75.4-1.8 1.15-6.3 1.75-10 .55-3.7 1.25-7.65 1.55-8.75.25-1.1.7-3.55.95-5.5.25-1.9.6-4.2.8-5.05.5-2.65-.6-3.2-6.3-3.2-3.7 0-5.1.2-5.65.75-.4.4-1 2.25-1.3 4.1-.35 1.9-.8 4.65-1.05 6.15s-1.5 8.7-2.75 16c-1.3 7.3-2.65 15.05-3 17.25-.35 2.2-.9 5.25-1.15 6.75-.3 1.5-.8 4.2-1.1 6-.3 1.8-1 5.75-1.5 8.75-1.2 6.7-1.25 9.05-.25 9.6 1.1.65 10.4.15 11.1-.5zm31.9.1c.75-.75 1.9-6 3.5-16.2.65-4.1 2.6-15.3 4.55-26.25.4-2.35.95-5.6 1.25-7.25 1.2-7.95 2.6-14.05 3.35-14.6.5-.4 2.4-.65 5.15-.65 5.1 0 5.6-.3 6.4-4 .75-3.6.7-5.35-.25-5.7-.45-.15-8.05-.3-16.9-.3-12.1 0-16.3.15-16.95.65-.75.5-1.85 4.85-1.85 7.2 0 1.55 1.6 2.15 5.45 2.15 5.7 0 5.6-.3 3.6 10.65-.85 5-1.9 11.15-2.35 13.6-.4 2.5-1.05 6.3-1.45 8.5-1.75 9.95-2.75 15.4-3.75 20.5-.6 3.05-1.1 6.95-1.15 8.7-.1 3.85-.15 3.8 6.45 3.8 3.1-.05 4.4-.25 4.95-.8z"/><path d="M689.85 842.9c-2.2-2.95-2.5-4.9-2.2-13.6.65-17.8 6.95-37.5 13-40.65 1.35-.7 1.6-.65 2.8.25 2.65 2 3.25 3.75 3.45 10.7.5 15.1-5.15 36.35-11.3 42.85-2.45 2.6-4.05 2.7-5.75.45zM283.9 735.05c-1.85-.15-3.6-.55-3.9-.85-1.2-1.2-1.45-4.75-1.15-15.4l.3-10.95 1.5-.8c4.5-2.45 5.65-5.15 3.1-7.55-2.25-2.1-1.7-3.65 2.5-6.5 3.25-2.25 3.5-4.15.6-4.9-2.2-.55-2.8-1.8-1.75-3.5.5-.75 1.2-2.05 1.6-2.85 1.1-2.3 2.25-3.1 5.55-3.75 9.6-1.9 14.6-3.55 22.5-7.5 6.15-3.05 9.65-4.45 15.2-6 7.75-2.2 17.25-5.75 20.3-7.6 5.15-3.2 8.2-7.85 13.55-20.7 4.2-10.25 3.45-9.4 12.4-13.95 9.9-5.1 15.1-8.6 23.05-15.55 4.85-4.25 5.55-4.55 7.2-3.35.7.55 2.05 2 2.9 3.2.9 1.2 2.2 2.95 2.9 3.9.7.95 1.25 2.4 1.25 3.3 0 .85.3 2.75.7 4.25.35 1.5 1.05 4.55 1.5 6.75 1.35 6.15 1.6 7.15 3.2 12.5 3.2 10.45 6.45 17.15 9.4 19.05.85.6 1.15.55 2.15-.1 1.05-.75 1.15-1.1.85-3.65-.35-3.2-1.25-6.25-2.75-9.65-.6-1.3-1.2-3.85-1.4-5.65l-.3-3.25h1.5c1.15 0 2.2.7 4.45 2.9 2.45 2.4 3.25 3.6 4.65 7.1 2.9 7.4 5.6 11.5 7.55 11.5 2.3 0 2.35-3.55.15-9.4-1.8-4.8-1.45-7.65.7-5.7 1.9 1.65 5.5 6.35 6.85 8.9 1.65 3.05 3.7 4.75 5.25 4.35 1.3-.35 1.35-1.75.3-5.8-.4-1.6-.75-3.1-.75-3.35 0-.75 1.4-.6 2.75.3 2.45 1.6 3.55-.4 2.05-3.9-1.45-3.55-5.25-15.6-6.6-21.1-.45-1.65-1.4-3.8-2.2-4.8-3.3-4.15-16.4-14.8-21.3-17.25-2.2-1.1-4.7-3.95-7.3-8.25-3.05-5.05-3.2-5.6-1.7-7.35 1.1-1.25 1.5-1.4 4.15-1.35 3.75.05 11.55 1.3 18.15 2.95 2.9.7 5.8 1.4 6.5 1.6.7.15 3.3 1.1 5.75 2.15 2.5 1.05 5.7 2.05 7.15 2.2 4.9.65 6.95-.6 13.45-8.3 1.8-2.1 3.6-3.95 4-4.1.95-.4 2.55.5 4.4 2.45 2.75 2.95 12 10.35 15.75 12.6 4 2.45 4 2.45 4.05 9.8 0 7.05.6 10.95 2.65 18.1.75 2.5 1.55 5.3 1.8 6.25.25.95.5 7.6.5 14.8 0 10-.15 13.55-.7 15.25-.4 1.2-1 3.8-1.25 5.8-.75 4.85-1.2 5.9-3.25 7.25-2.25 1.5-2.8 2.75-2.8 6.5 0 1.65-.2 3.85-.5 4.85-.25 1-.7 2.75-1 3.9-.45 1.8-.9 2.35-2.6 3.2-1.1.55-2.95 1.35-4.1 1.7-1.1.35-4.75 1.7-8.05 3-3.3 1.3-7.25 2.75-8.75 3.25s-5.65 1.95-9.25 3.25c-12.5 4.4-34.55 11.65-42.5 14-11.5 3.4-28.4 7.85-35 9.25-1.65.35-5.25 1.15-8 1.8-9.7 2.25-25.45 5-38.25 6.7-17.25 2.25-19.5 2.55-25.5 3.3-6.65.85-30.15 1.35-36.1.75zM537.05 671.55c-.4-.65-.3-1.6.25-3.25.5-1.45.7-3.15.55-4.7-1.05-9.15-1.15-8.15 1.05-10.4 1.7-1.75 2.3-3.15 4.5-9.75 1.4-4.25 2.7-8.8 2.85-10.2.15-1.35.5-8.7.75-16.25.35-11.3.6-14.65 1.55-18.75.75-3.5 1.1-6.75 1.15-10.75.05-5.5-.05-5.9-1.6-9.15-.85-1.85-1.6-3.5-1.6-3.65 0-.95-5.8-8.8-7.7-10.3-3.5-2.95-8.45-12.15-9-16.85-.3-2.45-1.8-5.5-2.9-5.95-.25-.1-.85-1-1.35-2-.55-1.05-2.9-3.85-5.25-6.35-2.4-2.45-5.4-5.8-6.7-7.45-1.3-1.6-4.5-5.4-7.1-8.5-4.65-5.45-6.95-8.65-13.75-19.3-4.7-7.4-5.4-8.35-9.05-12.1-1.75-1.85-3.2-3.65-3.2-4.1 0-1.45 2.95-5.05 8.35-10.3 3-2.9 6.55-5.9 7.9-6.7 1.4-.85 3.7-2.25 5.2-3.15 1.45-.9 2.75-1.65 2.9-1.65.6 0 6.2-4.2 8.35-6.25 3.25-3.15 9-6.45 10.55-6.05.9.25 1.75 1.5 3.5 5.15 4.55 9.55 8.4 14.8 12 16.5 1.35.65 3.75 2.2 5.25 3.45 1.5 1.2 3.9 3 5.25 3.9 2.85 1.9 3.95 3.05 5.5 5.65 1.3 2.1 6.65 6 11.25 8.25l3.25 1.55 18 .9c9.9.5 21.5.9 25.75.95 4.25 0 8.1.2 8.5.5.6.35.7 2 .55 9.85-.1 8.8-.05 9.65 1.15 13.75 1.95 6.75 4.15 10.7 9.95 17.8 1.85 2.3 3.35 4.35 3.35 4.6 0 .5 5.1 4.2 8.85 6.4 3.6 2.15 10.55 4.35 15.85 5.1 5.05.7 13.1.05 18.45-1.5 6.75-1.9 16.55-8 18.25-11.3.4-.75 1.9-2.75 3.35-4.45 3.15-3.75 6.35-9 7.7-12.75 2.05-5.8 3.2-10.75 3.15-14.1l-.1-3.35 2.3-1.95c3.6-3.05 3.1-4.75-3.35-11.15-1.55-1.55-3-3.35-3.2-4-1.05-3.3-12.2-16.1-15.35-17.65-.65-.3-1.5-1.3-2-2.2-1.15-2.35-3.75-5.1-4.8-5.1-.5 0-2 .35-3.3.8-1.95.7-2.75.7-4.3.25-5.3-1.55-15.85-1.6-22.5-.05-2.8.65-9 3.3-12.05 5.1-1.25.8-2.55 1.4-2.85 1.4-.25 0-.6.35-.8.75-.15.4-1.05 1.1-2 1.55-1.6.8-2.1.8-6.85 0-2.8-.5-5.7-1.15-6.4-1.5-.7-.35-2.2-.8-3.3-1-1.8-.35-7.7-1.9-24.25-6.55-3.15-.85-6.5-2-7.45-2.5-1.4-.7-2.4-.8-5.6-.55-3.7.35-3.85.3-4.85-.95-.6-.75-1.4-2.5-1.8-3.95-1.1-3.8-5.05-9-10.75-14.3-2.8-2.6-5.05-5.05-5.05-5.6 0-1.25 1.9-1.6 5.85-.95 5.4.85 10 1.55 15.65 2.3 2.9.35 7.15 1.05 9.5 1.45 2.35.4 6.3 1.1 8.75 1.55 2.5.4 5.85 1.1 7.5 1.5 1.65.4 6.05 1.3 9.75 2 9.8 1.9 23.1 5 32.25 7.6 4.4 1.25 9.25 2.55 10.75 2.85 1.5.35 3.9 1 5.25 1.45 4.65 1.45 11 3.3 12.5 3.65.85.2 2.5.8 3.75 1.35 1.25.5 3.95 1.35 6 1.9 3.6.9 19.3 6.15 33.75 11.35 3.85 1.4 8.7 3.1 10.75 3.85 11.9 4.2 25.95 10.1 40.95 17.3 4.5 2.2 8.25 3.95 8.35 3.95.35 0 27.6 13.6 36.45 18.25 18.85 9.8 22.1 11.5 25 13.1 4.1 2.25 8.4 4.55 12.85 6.8 2.1 1.05 4.05 2.4 4.35 3.05.7 1.3.6 1.25 9.85 6.35 3.95 2.25 7.4 4.4 7.65 4.85.25.5.15 3.35-.25 6.6-.35 3.15-.9 8.1-1.2 11-.3 2.9-.75 6.25-1 7.5s-1.05 6.1-1.75 10.75c-2.8 18.15-9.15 46.65-10.8 48.45-.9.95-.95.9-3.55-1.3-7.9-6.7-17.9-12.15-29.4-15.9-11.85-3.9-22.55-5.8-37.75-6.65-18.9-1.05-34.2-.55-55.75 1.95-18.55 2.1-44.45 6.85-64.15 11.7-7.7 1.95-27.1 7.1-29.35 7.85-1.25.4-5.75 1.75-10 2.95-8 2.35-25.8 8.2-31.5 10.35-1.8.65-6.5 2.7-10.5 4.45-13.15 5.9-13.45 6.05-27.25 11.6-3.85 1.55-7.9 3.3-9 3.9-1.1.55-2.9 1.3-4 1.65-1.1.35-4.1 1.6-6.65 2.7-5.1 2.25-7.75 2.6-8.55 1.1zM425 827.55c-1.3-.2-1.8-.6-1.9-1.4-.2-1.25 4.45-16.15 5-16.15 1.05 0 1.3 2.35 1.05 9.2-.25 5.4-.5 7.6-1 8.1-.4.4-.85.65-1.05.65-.2-.05-1.15-.2-2.1-.4zM384.1 808.35c-.65-.8 1.9-16.35 2.85-17.55 1-1.2 2.4-.15 3.05 2.25.55 2.05.1 7.25-1 10.9-.8 2.85-3.9 5.6-4.9 4.4zM469.65 810.2c-.15-.45.05-2.75.55-5.15.45-2.35.8-4.9.8-5.6 0-2.6 1.65-9.2 2.45-9.8 1.85-1.45 6.25.6 7.6 3.5 2.45 5.45-.4 13.05-6.15 16.35-2.95 1.65-4.75 1.9-5.25.7z"/></g></svg>