<svg width="71" height="71" fill="none" xmlns="http://www.w3.org/2000/svg"><path d="M31.917 61.936c-.75-.042-2.357-.292-2.784-.43l-.207-.069v-.256h.306c.164 0 .42.02.565.046.145.026.588.066.986.085.592.03.878.027 1.578-.013a23.683 23.683 0 0 0 2.35-.246c.207-.036.467-.072.575-.086.401-.046 2.107-.453 2.738-.656 1.246-.398 1.63-.523 1.864-.611.487-.184.625-.233.79-.293a8.498 8.498 0 0 0 1.57-.791c.105-.072.2-.128.21-.128.01 0 .139-.079.287-.177l.562-.371c.575-.381 1.052-.706 1.344-.926.164-.122.335-.244.381-.276a4.91 4.91 0 0 0 .263-.188c.099-.072.224-.16.273-.193l.092-.063-.338-.013c-.438-.016-.592-.082-.776-.325-.253-.345-.358-.85-.322-1.583.026-.476.131-1.14.253-1.593.207-.748.654-1.438 1.11-1.704.139-.082.188-.089.58-.102.561-.016.673.013.893.24.116.118.185.22.21.319.02.075.067.226.1.331.052.155.062.29.062.792 0 .532-.013.666-.099 1.14-.108.584-.263 1.08-.43 1.388l-.109.197.145-.115.2-.16a16.231 16.231 0 0 0 .828-.706c.178-.161.366-.326.415-.362a4.44 4.44 0 0 0 .286-.25c.105-.101.27-.249.358-.328.464-.404 1.42-1.366 2.035-2.052.16-.178.306-.332.315-.342.027-.016.283-.318.543-.637.092-.112.227-.266.302-.348.079-.082.142-.158.142-.168a.38.38 0 0 1 .075-.101c.04-.046.102-.125.138-.178.036-.049.125-.167.197-.26.217-.268.477-.636.845-1.195a7.95 7.95 0 0 1 .197-.288c.043-.06.122-.181.175-.273.055-.095.148-.246.21-.342.29-.44.756-1.33 1.078-2.055.046-.099.109-.24.145-.312a6.04 6.04 0 0 0 .276-.706c.023-.083.072-.224.108-.312a5.75 5.75 0 0 0 .119-.339l.049-.177-.154-.164a2.782 2.782 0 0 0-.664-.493c-.083-.046-.217-.125-.306-.174-.188-.105-.362-.174-.944-.361-.404-.135-.614-.184-1.15-.28-.756-.134-1.95-.186-2.958-.134-.592.033-1.808.158-2.236.23-.897.154-1.699.305-2.103.4-.944.224-1.657.411-2.17.572-.082.023-.289.086-.46.135-.17.046-.414.121-.542.16-.125.043-.408.132-.625.198-.463.138-.529.16-1.495.489-.408.141-.888.302-1.069.364-.18.06-.542.188-.805.28-.263.095-.523.184-.578.197a.553.553 0 0 0-.142.049 8.473 8.473 0 0 1-.49.18c-.87.31-.983.355-.91.378.036.01.131.053.214.092l.147.072.004.224c.003.148.02.243.052.272.027.027.165.092.31.142.466.167.801.357 1.015.578.477.486.677 1.553.358 1.894-.17.181-.41.263-.818.283-.414.016-1.078-.036-1.22-.099-.299-.128-.621-.43-.74-.693-.029-.069-.118-.128-.341-.233-.286-.138-.31-.141-.533-.128-.25.02-.575-.03-.854-.125-.395-.134-.871-.558-.96-.85a2.485 2.485 0 0 0-.072-.22c-.033-.086.144-.135-1.427.4-.615.21-1.367.46-1.676.559-.306.095-.661.21-.79.256-.124.046-.36.121-.525.17-.161.05-.444.139-.625.198-.18.056-.506.154-.723.213-.217.06-.526.148-.69.197-.161.05-.414.122-.559.161a38.75 38.75 0 0 0-.674.18c-.828.224-1.587.408-2.084.497a5.127 5.127 0 0 0-.361.078c-.112.037-1.493.24-2.075.306-.223.026-.782.042-1.479.042h-1.117l-.506-.108c-.585-.125-.704-.164-.973-.305l-.296-.155a3.119 3.119 0 0 1-.658-.555 1.444 1.444 0 0 0-.134-.157 1.265 1.265 0 0 1-.129-.197c-.079-.148-.092-.214-.121-.64a11.132 11.132 0 0 1-.017-.933l.014-.46-.083-.066c-.204-.164-.368-.361-.388-.466a10.33 10.33 0 0 1-.006-.808c.013-.617.023-.726.089-.93.134-.41.17-.446.476-.489.086-.01.28-.075.428-.14.26-.12.279-.122.759-.142.523-.023.736-.079 1.081-.28.076-.042.237-.101.365-.13a1.47 1.47 0 0 0 .306-.102c.069-.046.476-.365.743-.582.263-.213.572-.36 1.042-.496.227-.065.467-.14.532-.167a.687.687 0 0 1 .198-.05c.138 0 .269-.17.345-.45.059-.216.072-.374.085-1.043.007-.434.033-.894.056-1.019.04-.23.04-.236-.082-.623-.237-.766-.283-.986-.283-1.406 0-.312-.013-.41-.062-.51-.112-.222-.145-.452-.125-.856.04-.769.164-1.29.444-1.862.25-.51.308-.62.374-.69.19-.217.339-.647.404-1.166.01-.082.05-.2.086-.262.178-.302.263-.539.296-.795.046-.375.223-.67.684-1.146.134-.142.23-.256.213-.256-.03 0-.605.16-1.098.305-.503.148-.927.292-1.594.535-1.042.381-.934.335-2.156.88-.592.266-1.936.95-2.068 1.055a2.48 2.48 0 0 1-.197.121c-.082.046-.28.168-.444.27-.16.101-.351.216-.424.255-.246.145-.41.253-.496.332a.337.337 0 0 1-.283.082c-.085-.01-.118-.128-.082-.272.033-.125.618-.85.924-1.143.036-.033.22-.214.41-.397a10.743 10.743 0 0 1 1.447-1.196c.256-.187.588-.4.621-.4a.373.373 0 0 0 .125-.076c.174-.145 1.026-.614 1.555-.86.292-.138.555-.263.585-.28.03-.016.256-.114.5-.216.943-.391 2.205-.782 3.32-1.032.17-.039.394-.091.496-.118a1.45 1.45 0 0 1 .296-.046.96.96 0 0 0 .243-.04c.072-.019.22-.052.328-.071.214-.04.198-.023.474-.476.19-.316.434-.513.92-.756.207-.105.352-.213.582-.43.447-.427.447-.427 1.298-.48.44-.026.947-.082 1.319-.14.331-.056.686-.112.792-.122.22-.026.27-.066.318-.24.027-.099.024-.148-.016-.22-.06-.115-.066-.46-.013-.759a.653.653 0 0 1 .151-.344c.138-.168.339-.555.47-.913.19-.526.444-.756 1.101-1.005.204-.076.277-.086.641-.086h.411l.28.132c.63.299.963.739 1.173 1.543.072.276.086.394.089.877.003.667-.06 1.11-.214 1.475l-.102.246.194.272c.19.27.194.273.388.316.42.088.546.148.809.367.141.119.309.283.371.365.063.085.138.16.168.174.033.01.197.036.371.053.178.016.454.052.615.082.164.026.385.065.493.082.108.02.332.056.493.082.164.026.371.062.46.082a38.343 38.343 0 0 1 3.583.854 62.734 62.734 0 0 1 4.536 1.54c.18.072.5.194.707.276.44.17 1.104.44 1.2.483.154.069.7.295.72.295.01 0 .144.06.299.132.154.072.292.13.312.13.02 0 .164.067.322.145.158.08.322.155.368.168.046.013.296.125.559.246.263.122.513.233.559.246.046.014.348.155.674.313.325.157.815.387 1.084.505.497.224.763.352 1.693.805.283.138.569.276.641.305.072.03.184.086.247.122.062.036.374.194.69.351.316.154.595.299.618.319.095.075.207-.165.345-.733.085-.351.122-.808.122-1.533 0-.693-.066-1.587-.132-1.77-.036-.105-.184-.233-.953-.835-.207-.16-.44-.344-.516-.41a1.01 1.01 0 0 0-.155-.115 2 2 0 0 1-.233-.17 58.119 58.119 0 0 0-1.956-1.538 5.445 5.445 0 0 1-.29-.22c-.022-.023-.2-.16-.394-.312a27.091 27.091 0 0 1-.4-.315c-.027-.023-.132-.105-.23-.184-.1-.075-.33-.256-.513-.4-.181-.142-.47-.365-.641-.496l-.654-.503c-.191-.144-.388-.299-.44-.338a8.291 8.291 0 0 1-.28-.22 18.799 18.799 0 0 0-.562-.427 66.51 66.51 0 0 1-1.397-1.064 18.94 18.94 0 0 0-.47-.351c-.112-.08-.313-.22-.44-.316a39.007 39.007 0 0 0-.602-.42c-.392-.273-.5-.351-.79-.575a2.638 2.638 0 0 0-.252-.184 1.017 1.017 0 0 1-.152-.121c-.095-.092-1.268-.966-1.495-1.117-.076-.049-.296-.197-.49-.328-1.676-1.133-3.297-1.931-5.27-2.598-1.041-.354-2.497-.676-3.483-.775-.198-.02-.51-.052-.69-.075-.218-.027-.82-.04-1.76-.04-1.574.004-1.995.036-3.198.25-.305.056-.614.095-.69.089-.131-.01-.138-.014-.148-.128-.006-.07.007-.132.033-.152.066-.052.766-.328 1.078-.423.29-.089.552-.151 1.15-.273.191-.04.392-.085.445-.102.243-.075 1.042-.115 2.235-.115 1.344 0 1.91.027 2.35.102.154.027.404.066.559.092 1.364.227 2.573.552 4.076 1.097.614.22 1.771.713 2.373 1.008.154.08.319.151.361.168.043.013.194.088.339.17.145.083.385.214.536.293.703.368 1.36.742 2.002 1.143l.598.374c.46.276 2.294 1.543 2.695 1.862.138.108.339.263.447.342.25.184.7.571 1.447 1.248.128.118.351.308.493.426.144.119.38.325.532.46.325.299.562.506.93.821.155.131.339.292.411.358.072.07.227.2.345.296.119.098.372.322.566.502.194.178.43.388.529.463.164.128.394.332.943.828a85.91 85.91 0 0 0 1.749 1.52c.046.036.043.004-.026-.246a4.647 4.647 0 0 0-.125-.404 32.784 32.784 0 0 1-.184-.542 18.673 18.673 0 0 0-.51-1.38c-.351-.79-.723-1.559-.838-1.723a.924.924 0 0 1-.079-.145c-.059-.17-.861-1.438-1.11-1.76a7.504 7.504 0 0 1-.201-.266c-.585-.785-1.733-1.908-2.446-2.394a70.548 70.548 0 0 1-1.183-.844c-.227-.17-.24-.187-.24-.309v-.128h.158c.124 0 .207.03.414.148.144.082.266.148.273.148.006 0 .105.062.217.141.111.076.345.223.516.325.17.102.39.243.486.315.743.559 1.907 1.728 2.603 2.618l.234.292c.138.168.703 1.005.822 1.218.059.109.14.243.18.296.151.207.648 1.169.865 1.675.079.18.167.387.2.46.129.288.484 1.267.566 1.553.154.548.384 1.534.437 1.892.016.104.072.18.322.43.283.282.542.473.97.712l.177.102-.013.161c-.023.24-.076.273-.398.273-.148 0-.341-.007-.434-.017-.128-.013-.164-.006-.167.033a80.136 80.136 0 0 0-.161 1.51c-.027.3-.08.838-.115 1.2-.08.804-.09 1.129-.033 1.234.036.066.197.276.355.457.089.098.473.643.536.755l.16.279c.053.092.195.364.313.608.122.243.237.479.263.525.023.046.075.17.115.28.365 1.004.46 1.467.513 2.485.03.578.02.617-.152.617-.128 0-.128 0-.184-.187-.118-.417-.289-.922-.38-1.142a9.65 9.65 0 0 1-.175-.45 6.55 6.55 0 0 0-.549-1.094c-.177-.273-.582-.673-.68-.673-.047 0-.073.026-.09.092-.009.049-.095.384-.183.745-.092.361-.181.723-.198.805a47.429 47.429 0 0 1-.44 1.609c-.138.456-.23.752-.342 1.11l-.108.342.125.282c.348.795.65 1.655.736 2.108.02.099.066.316.105.476.072.31.086.391.178 1.078.082.617.056 2.144-.046 2.683-.184.982-.51 1.826-.986 2.545-.333.505-.526.725-1.407 1.619-.91.913-.924.926-1.059.926-.128 0-.135-.004-.135-.102 0-.148.047-.213.359-.529.27-.269.394-.407.74-.814 1.064-1.251 1.67-3.3 1.495-5.077-.092-.946-.395-2.128-.792-3.084-.142-.341-.19-.43-.19-.338 0 .03-.05.154-.113.276-.062.124-.164.338-.223.473-.109.243-.358.725-.42.82-.02.027-.142.25-.277.493-.42.775-.536.966-1.124 1.865-.099.152-.178.28-.178.29a4 4 0 0 1-.207.302c-.111.157-.23.321-.26.367-.174.257-.575.805-.795 1.084-.079.099-.22.286-.319.414-.483.637-.96 1.208-1.561 1.865-.184.2-.388.43-.46.512-.349.408-2.081 2.09-2.56 2.486a2.489 2.489 0 0 0-.244.22c-.026.03-.135.122-.243.204-.106.082-.24.19-.3.243a3.99 3.99 0 0 1-.269.22c-.095.07-.29.22-.434.338a16.435 16.435 0 0 1-.753.585c-.427.325-1.538 1.09-1.58 1.09-.017 0-.057.03-.09.066-.032.036-.078.066-.098.066-.023 0-.06.023-.082.049-.023.03-.138.105-.253.174-.115.066-.26.151-.32.187l-.45.263c-.187.108-.371.213-.407.236-.072.046-.171.092-.247.122-.026.01-.108.056-.18.102a2.805 2.805 0 0 1-.247.138l-.477.226c-.197.095-.532.243-.74.325-.206.086-.45.19-.541.23-.47.214-1.312.483-2.515.805-.937.25-2.219.443-3.468.525-.48.033-2.104.033-2.679 0zm13.75-6.739c.29-.358.49-.952.65-1.924.119-.72.066-1.205-.144-1.333-.053-.03-.076-.017-.161.079-.112.13-.309.535-.414.853-.217.65-.368 1.852-.27 2.151.046.145.151.312.197.312.017 0 .08-.062.142-.138zM20.938 48.13c.227-.026.582-.072.79-.098.206-.03.607-.082.887-.118a30.641 30.641 0 0 0 3.04-.559 41.651 41.651 0 0 0 2.301-.607 83.377 83.377 0 0 0 3.402-1.133c.099-.033.359-.128.576-.214.216-.085.457-.174.529-.197a2.11 2.11 0 0 0 .27-.111c.111-.056.14-.092.17-.21l.066-.257c.02-.066.033-.21.033-.318 0-.247.036-.329.184-.427.135-.089.164-.158.214-.476a2.42 2.42 0 0 1 .082-.381c.052-.171.066-1.583.013-1.777a17.145 17.145 0 0 0-.118-.41 3.658 3.658 0 0 1-.175-1.19c-.003-.482-.003-.482-.266-.643a7.94 7.94 0 0 1-1.039-.83.448.448 0 0 0-.134-.112c-.017 0-.112.098-.214.223-.434.515-.562.588-.99.552a1.645 1.645 0 0 1-.562-.148 3.896 3.896 0 0 0-.38-.145 21.71 21.71 0 0 0-.428-.105c-.345-.085-.92-.184-1.095-.19a.241.241 0 0 0-.154.062c-.06.063-.06.07.102.325.184.296.322.45.47.526.322.16 1.183.857 1.4 1.133.053.065.115.206.145.315.088.358.328 1.12.437 1.392a.81.81 0 0 1 .036.296l-.01.18-.135.01-.134.01.016.256c.013.247.013.257-.062.276-.247.066-.415-.03-.57-.325a1.614 1.614 0 0 0-.183-.276l-.099-.115.046.118c.027.066.06.23.073.368.026.309.003.352-.217.352-.138 0-.171-.013-.26-.115-.118-.135-.19-.27-.316-.591-.111-.286-.213-.437-.378-.572l-.131-.105.02.108c.013.06.049.175.085.257.118.266.161.44.18.725.02.27.017.286-.058.335-.21.148-.454.004-.635-.384-.167-.358-.48-1.297-.48-1.448a.69.69 0 0 0-.03-.168c-.058-.19-.167-.7-.167-.794a.427.427 0 0 0-.082-.207 47.23 47.23 0 0 0-.19-.256c-.175-.24-.181-.24-.454 0-.533.466-.871.693-1.529 1.03-.588.3-.539.244-.815.917-.352.844-.552 1.15-.89 1.36-.201.121-.826.354-1.335.499a4.986 4.986 0 0 0-1 .394c-.519.26-.848.371-1.479.492-.19.04-.345.135-.345.214 0 .023-.03.079-.066.121-.069.09-.059.125.037.125.092 0 .16.092.16.217 0 .16-.036.21-.226.342a.802.802 0 0 0-.168.134c0 .01.03.046.066.079.053.046.066.102.066.266 0 .184-.01.21-.096.282-.052.04-.138.099-.19.129l-.099.055-.016.634c-.017.63 0 .824.072.897.02.02.135.046.256.059.372.036 1.74.003 2.176-.053zm14.832-4.193c.167-.073.364-.155.437-.178.072-.023.19-.072.263-.108.072-.04.338-.155.591-.256.908-.365.927-.375 1.792-.762.263-.115.572-.25.69-.292a45.38 45.38 0 0 1 2.07-.68c.28-.079.576-.168.658-.194.082-.03.49-.138.904-.25 1.854-.486 2.525-.627 4.388-.92a23.293 23.293 0 0 1 2.564-.255c1.604-.063 2.752.006 3.879.233.41.082 1.242.371 1.627.568.355.18.786.453.996.637.06.053.118.095.135.095.013 0 .05-.098.075-.22.03-.124.112-.486.188-.807.19-.825.315-1.462.414-2.109.046-.305.099-.624.115-.706.026-.141.056-.39.132-1.11.02-.184.03-.348.02-.364a6.454 6.454 0 0 0-.497-.296c-.605-.335-.598-.332-.644-.417-.02-.043-.148-.131-.286-.2a28.073 28.073 0 0 1-.845-.447c-.19-.105-.404-.217-1.644-.86a100.051 100.051 0 0 0-2.396-1.199c-.007 0-.253-.115-.549-.26a27.7 27.7 0 0 0-2.692-1.136c-.135-.049-.453-.16-.707-.253-1.2-.43-1.955-.676-1.955-.637 0 .06.128.217.174.217.112 0 .923.936.99 1.143.012.043.134.187.266.322.285.292.358.427.335.614-.013.102-.05.157-.155.25-.135.118-.138.124-.148.347-.02.565-.315 1.291-.723 1.774a2.46 2.46 0 0 0-.22.292c-.115.217-.76.617-1.206.746a4.05 4.05 0 0 1-1.355.098c-.381-.046-.838-.187-1.091-.338-.246-.145-.582-.388-.582-.42 0-.017-.098-.151-.22-.303-.381-.466-.526-.725-.654-1.162-.072-.253-.079-.335-.079-.913 0-.552-.007-.64-.053-.657-.03-.01-.276-.02-.548-.023-.277 0-1.033-.026-1.683-.059l-1.184-.06-.213-.1c-.303-.149-.655-.405-.74-.543a.976.976 0 0 0-.362-.37 6.164 6.164 0 0 1-.345-.257 2.065 2.065 0 0 0-.345-.227c-.237-.111-.49-.456-.789-1.08a3.505 3.505 0 0 0-.164-.322c-.056 0-.434.253-.562.375-.142.137-.51.413-.55.413-.009 0-.094.05-.19.109l-.342.206c-.184.109-.874.766-.966.92l-.063.102.181.177c.2.197.27.29.585.785.447.7.599.91.904 1.268.171.203.382.453.467.558.086.108.283.328.44.49.155.163.31.347.346.416a.401.401 0 0 0 .088.132c.073.03.171.23.191.39.036.31.362.914.592 1.107.125.099.506.614.506.677 0 .01.05.118.108.24.106.22.106.23.106.699-.004.378-.017.545-.08.804-.062.276-.078.477-.101 1.232-.017.496-.04.979-.05 1.067-.01.092-.095.391-.187.67-.145.434-.184.526-.296.637-.105.112-.125.151-.108.22.043.158.056.624.023.72-.03.082-.023.134.016.134.004 0 .145-.059.313-.134zm6.228-13.12c.01-.023.033-.046.05-.046.02 0 .105-.04.187-.092.667-.4 1.473-.512 2.449-.348.174.033.132-.04-.056-.085a21.195 21.195 0 0 1-.861-.253 4.815 4.815 0 0 0-.345-.095c-.099-.02-.418-.106-.707-.188a28.977 28.977 0 0 0-2.12-.499 17.788 17.788 0 0 1-.641-.131 12.678 12.678 0 0 0-.477-.099l-.575-.098c-.161-.03-.45-.076-.64-.099-.813-.111-1.072-.148-1.118-.164-.027-.01.088.108.256.266.358.332.611.677.684.923.085.289.121.315.433.308.198-.006.293.007.375.05.06.033.28.105.487.16.207.06.595.168.86.244.267.075.563.15.658.17.096.017.227.056.29.083.062.026.226.065.361.088.263.046.408.017.45-.095z" fill="#000"/><path d="M34.83 56.209c-.296-.125-.425-.27-.536-.608-.09-.276-.092-.298-.09-.988 0-.723.01-.801.178-1.593.09-.417.267-.87.477-1.215.253-.417.355-.509.838-.745.207-.102.947-.129 1.167-.046.326.124.381.25.316.69-.056.357-.096.413-.29.413-.128 0-.187-.023-.348-.138l-.197-.135-.112.063a.809.809 0 0 0-.21.177c-.109.128-.326.555-.326.634a1.2 1.2 0 0 1-.108.26c-.142.265-.296.968-.339 1.553-.036.433.099.765.329.824.062.013.158-.02.378-.131.319-.164.486-.19.582-.096.046.05.052.099.033.349-.027.354-.076.479-.22.587-.201.151-.405.197-.885.214-.414.01-.457.006-.638-.07zM13.329 56.19l-.132-.017-.01-.227a1.827 1.827 0 0 1 .027-.394c.04-.17.085-.443.197-1.103.102-.621.286-1.655.395-2.25.055-.305.118-.653.138-.772.016-.118.049-.25.072-.295l.04-.082.976-.01c.677-.003.999.003 1.048.03.063.032.066.055.053.321-.02.319-.066.45-.171.476-.036.01-.263.02-.503.02-.5 0-.513.007-.565.273-.046.24-.129.68-.145.788-.02.131.05.154.486.154.375 0 .382 0 .418.082.05.112-.01.667-.076.71-.026.016-.217.03-.424.032-.545.007-.568.014-.598.194-.013.082-.053.296-.089.476-.118.598-.131.687-.088.713.02.013.25.026.516.026.325 0 .49.013.516.04.023.023.04.105.04.19-.004.184-.08.552-.126.598-.036.036-1.739.059-1.995.026zM16.116 56.19c-.069-.027-.075-.053-.075-.254 0-.121.023-.331.049-.47.06-.278.335-1.819.381-2.117.017-.109.06-.352.096-.542.032-.19.102-.559.148-.821.128-.713.17-.894.22-.923.023-.017.223-.03.444-.03.47 0 .502.017.502.26 0 .17-.124.936-.312 1.94-.069.352-.141.766-.164.92-.023.154-.076.463-.115.687-.036.223-.06.43-.05.456.017.043.09.046.49.03.569-.023.612-.007.612.23 0 .23-.066.561-.122.604-.06.052-1.989.075-2.104.03zM21.754 56.199c-.139-.013-.162-.023-.181-.102-.026-.115.108-1.04.27-1.829.049-.25.246-1.317.269-1.478.01-.052.043-.26.079-.456.046-.266.052-.368.026-.404-.026-.03-.118-.043-.29-.043-.154 0-.269-.016-.292-.04-.049-.049-.052-.489-.006-.646.016-.063.049-.125.072-.141.072-.043 2.373-.033 2.42.013.049.049.052.502.006.64-.05.135-.155.174-.46.174-.303 0-.342.033-.378.296-.01.082-.05.295-.083.476-.036.18-.095.512-.131.739-.099.594-.122.716-.227 1.297-.052.289-.115.644-.138.788-.059.4-.122.647-.168.677a.258.258 0 0 1-.124.03 8.57 8.57 0 0 0-.296.012 2.682 2.682 0 0 1-.368-.003zM24.028 56.202c-.27-.032-.263-.026-.263-.252 0-.112.03-.352.063-.533l.102-.558c.02-.125.065-.378.098-.558.033-.18.086-.47.112-.64.026-.171.066-.401.085-.51.02-.108.056-.308.083-.443.023-.134.075-.423.111-.64.04-.217.09-.496.106-.62.046-.3.079-.375.174-.401a6.87 6.87 0 0 1 .664-.007c.667.013.785.046 1.006.273.187.193.24.403.236.952-.003.374-.016.492-.072.643a1.75 1.75 0 0 1-.355.588l-.118.128.052.142c.119.318.214 1.067.217 1.697 0 .08.007.138.017.129.01-.01.098-.253.2-.54.335-.961.427-1.21.47-1.293a.744.744 0 0 0 .073-.18c.03-.109.174-.52.223-.624.026-.06.276-.76.549-1.54.062-.181.131-.349.151-.372.026-.033.161-.042.523-.042.43 0 .49.006.516.059.02.03.04 1.159.052 2.558l.02 2.505-.085.053c-.07.046-.142.053-.464.036-.21-.01-.394-.033-.417-.056-.023-.023-.043-.23-.053-.535l-.016-.5-.168-.009c-.24-.013-.316.062-.46.453-.063.171-.132.365-.148.427-.063.214-.066.214-.746.217-.796.003-1.183-.02-1.236-.072-.03-.027-.05-.217-.063-.595-.013-.302-.042-.7-.069-.88a8.197 8.197 0 0 1-.052-.351c0-.017-.013-.026-.033-.026-.017 0-.033.049-.033.108 0 .108-.06.45-.164.959a5.658 5.658 0 0 0-.082.515c-.03.31-.043.319-.395.335a4.128 4.128 0 0 1-.41 0zm4.056-2.003c.01-.03.02-.157.017-.286v-.236l-.082.246a2.323 2.323 0 0 0-.08.29c0 .058.122.048.145-.014zm-2.593-1.56c.053-.19.066-.522.023-.522-.013 0-.056.177-.092.397-.056.312-.06.385-.023.348.026-.023.066-.124.092-.223zM29.488 56.17c-.105-.076-.095-.168.125-1.426.118-.686.164-.936.197-1.067.033-.132.07-.342.151-.87.023-.155.096-.588.161-.97.102-.587.132-.699.194-.751.066-.056.129-.06.796-.05.71.014.726.017.904.102.25.125.473.345.539.539.079.236.072.956-.013 1.235a1.543 1.543 0 0 1-1.335 1.113c-.16.016-.315.04-.348.05-.063.019-.096.144-.19.768-.04.243-.09.538-.116.656a5.323 5.323 0 0 0-.062.395c-.014.098-.037.2-.05.226-.066.105-.818.141-.953.05zm1.663-3.12a.905.905 0 0 0 .391-.53c.046-.16.046-.18-.016-.318-.066-.15-.22-.266-.309-.23-.05.017-.154.463-.154.654 0 .056-.02.19-.046.305a.774.774 0 0 0-.027.204c.01 0 .082-.04.161-.085zM32.755 56.2c-.141-.008-.28-.03-.302-.05-.082-.066-.06-.273.17-1.586.027-.145.07-.388.1-.542.029-.155.088-.512.134-.798.043-.29.099-.62.125-.74.099-.465.151-.755.188-1.037.055-.41.062-.414.558-.414.217 0 .424.017.46.033.053.03.063.072.063.237 0 .108-.023.318-.05.466-.026.148-.072.378-.095.512-.026.135-.102.565-.167.953-.063.387-.132.752-.151.81a3.677 3.677 0 0 0-.066.392 1.436 1.436 0 0 1-.06.321.783.783 0 0 0-.052.233c-.036.352-.187 1.117-.23 1.16-.046.05-.266.066-.625.05zM36.95 56.17c-.093-.066-.093-.244-.004-.723.037-.197.089-.49.115-.654.027-.16.08-.456.119-.656.036-.197.082-.473.095-.608.016-.135.046-.302.069-.374.02-.07.056-.247.079-.394l.095-.545c.026-.155.06-.339.07-.41.062-.395.127-.664.173-.714.043-.049.112-.059.467-.059.329 0 .428.01.46.05.08.095.02.59-.217 1.783-.022.134-.036.256-.026.272.01.017.105.03.21.03.168 0 .204-.01.244-.072.026-.043.102-.385.164-.765.18-1.068.207-1.196.25-1.248.033-.04.131-.05.48-.05.4 0 .44.007.473.063.05.095.04.25-.036.683-.04.213-.082.476-.095.584-.017.109-.06.362-.099.559l-.184 1.018c-.062.36-.145.827-.18 1.034-.037.207-.086.503-.112.657-.066.42-.112.532-.23.565-.053.016-.26.02-.46.01-.494-.023-.504-.043-.382-.667.033-.174.085-.466.115-.647.033-.18.079-.437.105-.565.03-.131.043-.253.03-.272-.027-.043-.329-.043-.408 0-.04.02-.072.098-.095.22-.086.443-.142.745-.22 1.241-.05.289-.109.558-.132.598-.056.082-.174.105-.578.105-.198 0-.306-.017-.355-.05zM40.161 56.186c-.082-.046-.079-.365.007-.834.032-.197.078-.457.098-.575.02-.118.053-.296.073-.394.016-.099.052-.299.075-.443.023-.145.112-.654.197-1.133l.181-1.051c.017-.099.046-.28.07-.404.019-.122.058-.243.085-.27.036-.039.141-.049.47-.049.522 0 .542.014.516.309a8.23 8.23 0 0 1-.119.791c-.02.073-.065.332-.102.575-.039.243-.088.539-.115.657-.026.118-.085.437-.131.706-.046.273-.099.558-.115.64a7.93 7.93 0 0 0-.082.454 2.668 2.668 0 0 1-.066.335c-.01.016-.033.16-.053.318-.016.158-.049.306-.072.325-.053.053-.841.089-.917.043zM42.304 56.193c-.079-.023-.082-.03-.079-.32 0-.16.036-.462.076-.669.066-.348.128-.686.25-1.363.026-.144.072-.404.098-.575a486 486 0 0 1 .138-.791c.046-.266.076-.506.066-.535-.016-.043-.072-.053-.283-.053-.312 0-.364-.036-.364-.24 0-.24.062-.528.121-.571.043-.033.339-.043 1.213-.043.638 0 1.18.01 1.21.02.102.04.046.673-.07.785-.032.036-.124.05-.335.05-.18 0-.305.016-.338.042-.05.036-.142.437-.22.959-.02.108-.056.322-.083.476-.128.72-.256 1.455-.299 1.724-.108.677-.18 1.015-.23 1.064-.04.04-.134.053-.42.056-.201.003-.405-.003-.45-.017z" fill="#000"/></svg>